<?xml version="1.0" encoding="UTF-8"?>
<svg xmlns="http://www.w3.org/2000/svg" xmlns:xlink="http://www.w3.org/1999/xlink" version="1.1" viewBox="0 0 694.3 500">
  <defs>
    <style>
      .cls-1 {
        mask: url(#mask);
      }

      .cls-2 {
        opacity: .6;
      }

      .cls-2, .cls-3, .cls-4, .cls-5, .cls-6, .cls-7, .cls-8, .cls-9, .cls-10, .cls-11 {
        isolation: isolate;
      }

      .cls-2, .cls-12 {
        fill: #96c1fa;
      }

      .cls-13 {
        fill: #ff735d;
      }

      .cls-14, .cls-7 {
        fill-rule: evenodd;
      }

      .cls-14, .cls-7, .cls-15, .cls-10, .cls-11 {
        fill: #fff;
      }

      .cls-16 {
        fill: #db393c;
      }

      .cls-17 {
        fill: #e05c5c;
      }

      .cls-18 {
        fill: #363636;
      }

      .cls-3, .cls-19 {
        stroke: #96c1fa;
      }

      .cls-3, .cls-19, .cls-20 {
        fill: #f5f9fd;
      }

      .cls-3, .cls-19, .cls-21, .cls-22 {
        stroke-miterlimit: 10;
      }

      .cls-4, .cls-6, .cls-9, .cls-11 {
        opacity: .4;
      }

      .cls-4, .cls-23 {
        fill: #d17537;
      }

      .cls-24 {
        fill: url(#linear-gradient-8);
      }

      .cls-25 {
        fill: url(#linear-gradient-7);
      }

      .cls-26 {
        fill: url(#linear-gradient-5);
      }

      .cls-27 {
        fill: url(#linear-gradient-6);
      }

      .cls-28 {
        fill: url(#linear-gradient-9);
      }

      .cls-29 {
        fill: url(#linear-gradient-4);
      }

      .cls-30 {
        fill: url(#linear-gradient-3);
      }

      .cls-31 {
        fill: #210042;
      }

      .cls-32 {
        fill: #ffa154;
      }

      .cls-33 {
        fill: #1d1d1b;
      }

      .cls-34 {
        fill: #ffa1a1;
      }

      .cls-35 {
        fill: #263238;
      }

      .cls-6 {
        fill: url(#linear-gradient);
      }

      .cls-6, .cls-9 {
        mix-blend-mode: multiply;
      }

      .cls-36 {
        fill: #3a6885;
      }

      .cls-37 {
        fill: #73443b;
      }

      .cls-38 {
        fill: #345870;
      }

      .cls-39 {
        fill: #ffe5bf;
      }

      .cls-40 {
        fill: #92b9e0;
      }

      .cls-41, .cls-42 {
        stroke: #193b59;
        stroke-linecap: round;
        stroke-linejoin: round;
      }

      .cls-41, .cls-42, .cls-21, .cls-22 {
        fill: none;
      }

      .cls-7, .cls-43, .cls-10 {
        opacity: .7;
      }

      .cls-42 {
        stroke-width: .5px;
      }

      .cls-44 {
        fill: #d2dbec;
      }

      .cls-45 {
        fill: #5186c7;
      }

      .cls-46 {
        fill: #e0954a;
      }

      .cls-47 {
        fill: #49263e;
      }

      .cls-48 {
        fill: #69a0e1;
      }

      .cls-49 {
        fill: #d8ecfe;
      }

      .cls-50 {
        fill: #273359;
      }

      .cls-51 {
        fill: #cce3f2;
      }

      .cls-52 {
        fill: #fffffd;
      }

      .cls-53 {
        fill: #49b3e2;
      }

      .cls-54 {
        fill: #fafaff;
      }

      .cls-55, .cls-8 {
        opacity: .2;
      }

      .cls-56 {
        fill: #ffbf9d;
      }

      .cls-57 {
        fill: #cfe1ef;
      }

      .cls-8 {
        fill: #c3e8f4;
      }

      .cls-21 {
        stroke-width: 2px;
      }

      .cls-21, .cls-22 {
        stroke: #5186c7;
      }

      .cls-58 {
        fill: #5780bc;
      }

      .cls-59 {
        fill: #111e28;
      }

      .cls-60 {
        fill: #374169;
      }

      .cls-61 {
        fill: #d9dade;
      }

      .cls-62 {
        fill: #b02e30;
      }

      .cls-9 {
        fill: url(#linear-gradient-2);
      }

      .cls-63 {
        fill: #e47272;
      }

      .cls-64 {
        fill: #223749;
      }

      .cls-65 {
        fill: #f2c7c4;
      }

      .cls-66 {
        fill: #e8f0f8;
      }

      .cls-67 {
        fill: #8cd2f9;
      }

      .cls-68 {
        fill-opacity: 0;
      }

      .cls-69 {
        fill: #e6bc7a;
      }

      .cls-70 {
        fill: #95c9f4;
      }

      .cls-71 {
        fill: #193b59;
      }

      .cls-72 {
        fill: #ff9a6c;
      }
    </style>
    <linearGradient id="linear-gradient" x1="160.2" y1="386.2" x2="194.3" y2="336.3" gradientTransform="translate(0 502.4) scale(1 -1)" gradientUnits="userSpaceOnUse">
      <stop offset="0" stop-color="#9bc3ea"/>
      <stop offset="1" stop-color="#ebf4fa"/>
    </linearGradient>
    <linearGradient id="linear-gradient-2" x1="457" y1="457.7" x2="475.6" y2="418.2" gradientTransform="translate(0 502.4) scale(1 -1)" gradientUnits="userSpaceOnUse">
      <stop offset="0" stop-color="#9bc3ea"/>
      <stop offset="1" stop-color="#ebf4fa"/>
    </linearGradient>
    <linearGradient id="linear-gradient-3" x1="319.7" y1="370.1" x2="304.1" y2="359.2" gradientTransform="translate(-21.8 475.8) scale(1 -1)" gradientUnits="userSpaceOnUse">
      <stop offset="0" stop-color="#1c0035"/>
      <stop offset="1" stop-color="#46008d"/>
    </linearGradient>
    <linearGradient id="linear-gradient-4" x1="321.2" y1="368" x2="305.6" y2="357" gradientTransform="translate(-21.8 475.8) scale(1 -1)" gradientUnits="userSpaceOnUse">
      <stop offset="0" stop-color="#1c0035"/>
      <stop offset="1" stop-color="#46008d"/>
    </linearGradient>
    <linearGradient id="linear-gradient-5" x1="320.2" y1="369.4" x2="304.6" y2="358.3" gradientTransform="translate(-21.8 475.8) scale(1 -1)" gradientUnits="userSpaceOnUse">
      <stop offset="0" stop-color="#1c0035"/>
      <stop offset="1" stop-color="#46008d"/>
    </linearGradient>
    <linearGradient id="linear-gradient-6" x1="321.6" y1="367.3" x2="306.1" y2="356.3" gradientTransform="translate(-21.8 475.8) scale(1 -1)" gradientUnits="userSpaceOnUse">
      <stop offset="0" stop-color="#1c0035"/>
      <stop offset="1" stop-color="#46008d"/>
    </linearGradient>
    <linearGradient id="linear-gradient-7" x1="320.7" y1="368.7" x2="305.1" y2="357.7" gradientTransform="translate(-21.8 475.8) scale(1 -1)" gradientUnits="userSpaceOnUse">
      <stop offset="0" stop-color="#1c0035"/>
      <stop offset="1" stop-color="#46008d"/>
    </linearGradient>
    <linearGradient id="linear-gradient-8" x1="322.2" y1="366.6" x2="306.6" y2="355.6" gradientTransform="translate(-21.8 475.8) scale(1 -1)" gradientUnits="userSpaceOnUse">
      <stop offset="0" stop-color="#1c0035"/>
      <stop offset="1" stop-color="#46008d"/>
    </linearGradient>
    <linearGradient id="linear-gradient-9" x1="321.2" y1="368" x2="305.7" y2="356.9" gradientTransform="translate(-21.8 475.8) scale(1 -1)" gradientUnits="userSpaceOnUse">
      <stop offset="0" stop-color="#1c0035"/>
      <stop offset="1" stop-color="#46008d"/>
    </linearGradient>
    <mask id="mask" x="459.1" y="427.3" width="48.8" height="48.8" maskUnits="userSpaceOnUse">
      <g id="e7ZfSTxtdFp627">
        <path id="e7ZfSTxtdFp628" class="cls-44" d="M459.1,451.7c0-13.5,10.9-24.4,24.4-24.4s24.4,10.9,24.4,24.4-10.9,24.4-24.4,24.4-24.4-10.9-24.4-24.4ZM497.4,449.7c0-.4-.5-.7-.9-.6h0c-1.8.3-3.6-.5-4.4-2.1s-.6-3.5.6-4.9c.1-.1.2-.3.2-.5s0-.4-.2-.5h0c-1.2-1-2.5-1.8-3.9-2.4-.2,0-.4,0-.6,0s-.3.2-.4.4h0c-.6,1.7-2.2,2.9-4,2.9s-3.4-1.2-4-2.9c0-.2-.2-.4-.4-.4s-.4-.1-.6,0h0c-1.4.5-2.7,1.3-3.9,2.2-.2.1-.3.3-.3.5s0,.4.1.6h0c1.1,1.4,1.3,3.4.4,4.9s-2.7,2.3-4.5,2c-.2,0-.4,0-.6,0s-.3.3-.3.5h0c-.2,1.5-.2,3,0,4.5,0,.2.1.4.3.5s.4.2.6.1h0c1.8-.3,3.6.5,4.4,2.1s.6,3.5-.6,4.9c-.1.1-.2.3-.2.5s0,.4.2.5h0c1.2,1,2.5,1.8,3.9,2.4.2,0,.4,0,.6,0s.3-.2.4-.4h0c.6-1.7,2.2-2.9,4-2.8s3.4,1.2,4,2.9c0,.2.2.4.4.4s.4.1.6,0h0c1.4-.5,2.7-1.3,3.9-2.2.2-.1.3-.3.3-.5s0-.4-.2-.6h0c-1.2-1.4-1.4-3.4-.5-5s2.8-2.4,4.5-2c.4.1.8-.1.9-.5h0c.2-1.5.2-3,0-4.4ZM479.5,451.7c0-2.2,1.8-4,4-4s4,1.8,4,4-1.8,4-4,4-4-1.8-4-4Z"/>
      </g>
    </mask>
  </defs>
  <!-- Generator: Adobe Illustrator 28.6.0, SVG Export Plug-In . SVG Version: 1.2.0 Build 709)  -->
  <g>
    <g id="e7ZfSTxtdFp1" shape-rendering="geometricPrecision" text-rendering="geometricPrecision">
      <g class="cls-5">
        <g>
          <ellipse class="cls-8" cx="359.3" cy="417.7" rx="147" ry="12.3"/>
          <path class="cls-8" d="M682.3,0s-40.3,133.6-73,166.3-15.4,13.1-24.7,15.4c-41.7,10.6-43.8,25.3-55.9,84.8s-64.4,13.3-69.7,60.9c-5.3,47.5-52.8,20.5-68.3,69.1,0,0-49.1,25.5-65.8-29.7-16.7-55.1-35.3-47.3-93.3-57.4-58.1-10.2-20.8-88.9-77-88.9s-51.6-22.8-74.6-45.8S11.3,0,11.3,0h671Z"/>
          <g>
            <g>
              <path class="cls-65" d="M422.3,396.8s22.4,6.3,33,6.8l12.7,5.8c1.7.8,2.2,2.9,1,4.4h0c-.7.8-1.7,1.1-2.8.9l-11.3-2.7-28.5.2-4.1-15.3h0Z"/>
              <path class="cls-65" d="M414.8,410.3c1.2,6.9,16.9,4.4,22.4,4.4s11.9-.2,15.5-.2,2.1-.8,2.5-1.8h0c.6-1.6-.5-3.3-2.1-3.6l-12.7-2-19.4-10.6-6.1,13.8h-.1Z"/>
              <path class="cls-65" d="M429.1,398.9l26.2,3.1,8,7.6c1,1,1.1,2.5.2,3.6h0c-.9,1.1-2.4,1.3-3.6.5l-6.9-4.7-24,.6v-10.7h.1Z"/>
            </g>
            <path class="cls-65" d="M413.5,261.7c10.1,39.9,14.5,120.6,14.5,120.6l-29.7-1.4-3.1-111.5,18.3-7.6h0q0-.1,0,0Z"/>
            <path class="cls-65" d="M320.4,258.2c-14.8,41.1-10.6,80.6-30.2,143.7l17.4,8.3c23.6-41.5,36.3-140,36.3-140l-23.5-12.1h0q0,.1,0,.1Z"/>
            <g>
              <path class="cls-65" d="M300.1,396.8s-22.4,6.3-33,6.8l-12.7,5.8c-1.7.8-2.2,2.9-1,4.4h0c.7.8,1.7,1.1,2.8.9l11.3-2.7,28.5.2,4.1-15.3h0q0-.1,0,0Z"/>
              <path class="cls-65" d="M307.6,410.3c-1.2,6.9-16.9,4.4-22.4,4.4s-11.9-.2-15.5-.2-2.1-.8-2.5-1.8h0c-.6-1.6.5-3.3,2.1-3.6l12.7-2,19.4-10.6,6.1,13.8h.1,0Z"/>
              <path class="cls-65" d="M293.4,398.9l-26.2,3.1-8,7.6c-1,1-1.1,2.5-.2,3.6h0c.9,1.1,2.4,1.3,3.6.5l6.9-4.7,24,.6v-10.7h-.1Z"/>
            </g>
            <path class="cls-38" d="M331.2,330.9l-13.9,46.6s-2.3,37.2,43.2,36.3c45.5-.8,53-28.6,53-28.6l-19.7-54.4h-62.6Z"/>
            <path class="cls-48" d="M322.7,360.8c-.6,3.2-1,4.6-1,4.6,0,0,34.7,17,88.3-.9l-.5-6.1-3.6-41.9h0l2-.7h.4c0-.1,22.1-7.8,22.1-7.8-.9-3.2-1.7-6.3-2.5-9.3-6.8-24.4-12-38.7-17.3-43.4-4.5-4-12-3.1-22.5,1.3-6.1,2.5-13.1,6.1-21.3,10.6,0,0-8.4-5.5-18.2-10-9-4.1-19.2-7.3-25.3-4.5-8,3.6-15,30.1-18.2,44.4-1.2,5.4-1.9,9-1.9,9l23.3,6.1,2.6.7h.4c-2.9,26.4-5.5,41.2-6.8,48h0Z"/>
            <path class="cls-45" d="M321.7,365.4s34.7,17,88.3-.9l-.5-6.1c-27,5-68.7,3.5-86.8,2.5-.6,3.2-1,4.6-1,4.6h0Z"/>
            <path class="cls-45" d="M406.8,308l1.2,7.7h.4c0-.1,22.1-7.8,22.1-7.8-.9-3.2-1.7-6.3-2.5-9.3l-21.1,9.5h-.1Z"/>
            <path class="cls-45" d="M347.5,263.5c0,11.5,9.3,20.9,20.9,20.9s20.9-9.3,20.9-20.9-.4-4.9-1.2-7.1c-6.1,2.5-13.1,6.1-21.3,10.6,0,0-8.4-5.5-18.2-10-.7,2-1,4.2-1,6.4h-.1q0,.1,0,.1Z"/>
            <g>
              <g>
                <path class="cls-38" d="M351.8,369.8c-7.2-9.4-53-53.9-66.8-32.3-13.9,21.6,3.8,53.3,35.5,68.6s58.9-.2,31.3-36.3h0Z"/>
                <path class="cls-36" d="M283.3,354.4c4.6,10.6,12.2,19.5,20.6,27.3,4.4,4.1,9.1,7.9,14,11.5,4.6,3.5,9.3,7,14.1,10.2s10,5.9,15.9,6.1c1.3,0,1.2,1.9,0,2-5.3.4-10.5-2-14.9-4.8-4.9-3.1-9.6-6.6-14.2-10.1-9.7-7.2-19.2-14.9-26.5-24.7-4-5.3-7.2-11-9.5-17.2-.2-.5.5-.8.7-.4h-.2Z"/>
                <path class="cls-36" d="M337.7,355c8.3,6.3,15.6,14.2,20.7,23.4,1.4,2.6,2.7,5.3,3.8,8,.6,1.4-1.5,2.3-2.1.9-3.8-9.5-9.4-18.3-16.5-25.8-2-2.1-4.1-4.2-6.4-6-.4-.3,0-.9.4-.6h.1Z"/>
                <g>
                  <path class="cls-15" d="M420.3,432.1l13.4-34.5c-4.7-1.4-8.8-1.8-8.8-1.8l-17.4,33c10.3,4.1,12.8,3.3,12.8,3.3Z"/>
                  <path class="cls-36" d="M411.6,426.3c-1.3,1-2.6,1.8-4.1,2.5-1.9-.7-4.3-1.8-7.3-3.1-2.8-1.2-6.1-2.6-9.8-4.2-4-1.7-8.6-3.7-13.8-5.8-.1-6.3.7-13.3,2.7-19.3h0c10.4,2.1,26.9-.4,38.8-.9,3.1-.1,5.5,0,6.8.2,1.4,1.7-1.9,21.5-13.3,30.5h0q0,.1,0,0Z"/>
                  <path class="cls-46" d="M359.6,389.9c-1.5-.7-3.2-1.5-4.9-2.4,1.8.9,3.4,1.7,4.9,2.4Z"/>
                  <path class="cls-46" d="M344,381.9h0c.6.3,1.1.6,1.7.9-.6-.3-1.1-.6-1.7-.9Z"/>
                  <path class="cls-65" d="M379.3,396.5c-2,6-2.8,13-2.7,19.3-8.8-3.6-20.2-4.7-31.8-9l-.8-24.9c.6.3,1.1.6,1.7.9,1.1.6,2.2,1.2,3.2,1.7s2,1.1,3,1.5h0c.9.5,1.9,1,2.7,1.4h0c1.8.9,3.4,1.7,4.9,2.4,2.7,1.3,5,2.3,7.3,3.1.6.2,1.2.5,1.8.7s.6.2.9.3c.6.2,1.2.4,1.8.6.3,0,.6.2.9.3.6.2,1.1.3,1.7.5,1.7.4,3.5.8,5.3,1.2h.1Z"/>
                  <polygon class="cls-65" points="344.8 406.8 344 381.9 344 381.9 344 381.9 344.8 406.8"/>
                  <g>
                    <path class="cls-15" d="M400.3,425.9c-2.9-1.2-6.3-2.7-10.1-4.3,3.1-1.1,8.7.1,10.1,4.3Z"/>
                    <path class="cls-15" d="M424.9,395.8c3,4.4-.4,23.7-13.3,30.5-4.7-13.6.5-31.3,13.3-30.5Z"/>
                    <path class="cls-15" d="M380.1,387.8c-1.3.1-2.2,1.1-2.5,2.5-.6,3,1.6,6.7,3.3,9,1.8,2.3,3.9,4.1,6.3,5.3-1.9,0-3.8.5-5.6,1.4-2.5,1.3-5,3.4-6.2,6.2-1.1,2.5-.7,6.5,2.2,7.7s5.7-1.4,7.5-3.3c2.1-2.3,4-5.3,4.8-8.7-.2,2.2,0,4.4.2,6.7,0,.4.5.3.5,0,0-2.5.1-4.9.5-7.4.2-1.2.4-2.4.7-3.5s.8-2.2.9-3.4c0-.6-.6-1-1-.5-.5.8-.8,1.9-1,2.9-.4-5.1-3.3-10.5-7.2-13.5-1-.8-2.3-1.5-3.5-1.4h.1ZM385.7,413.8c-1.5,2.1-3.6,4.6-6.2,5-1.3.2-2.5-.4-3.1-1.8s-.4-3,.2-4.3c1.2-2.4,3.3-4.2,5.5-5.3,2.1-1.1,4.5-1.6,7-1.6h0c-.9,2.9-1.8,5.6-3.5,8h.1ZM383.4,390.6c1.9,1.7,3.4,3.8,4.5,6.2s1.6,5,1.8,7.5h-.1c-2.4-.9-4.7-2.5-6.6-4.6-1.8-1.9-3.5-4.6-4-7.2-.3-1.4,0-3.2,1.4-3.3,1.1,0,2.2.7,3,1.4h0Z"/>
                    <path class="cls-15" d="M395.7,401.9c-1.5,4.5-1.4,9.8-.1,14.6.1.4.7.3.6-.1-.5-2.4-.7-4.8-.6-7.1,0-2.4.5-4.6,1.1-6.9,0-.2,0-.5-.2-.7,0,0-.1-.1-.2-.1-.2,0-.5,0-.5.3h-.1,0Z"/>
                    <path class="cls-15" d="M401.6,401.8c-1.9,4.3-2.8,9.5-2.9,14.4,0,.6.8.8.8.2.2-2.4.5-4.8,1-7.2s1.3-4.6,2.1-6.9c.3-.7-.7-1.3-1-.6h0Z"/>
                    <path class="cls-15" d="M406.9,401.9h-.2c-.2,0-.3.2-.3.4-.3,1.2-.7,2.4-1,3.6s-.5,2.5-.6,3.7c-.3,2.5-.4,5-.3,7.6,0,.5.8.6.8,0,0-2.5.2-5,.5-7.4.2-1.2.4-2.3.6-3.5.3-1.3.5-2.6,1-3.8v-.6h0c0-.2-.2-.3-.4-.2v.2q-.1,0-.1,0Z"/>
                  </g>
                  <polygon class="cls-38" points="343.8 409.2 359.9 413.1 367.4 390.3 340.3 374.5 343.8 409.2"/>
                </g>
              </g>
              <g>
                <path class="cls-38" d="M423.6,352c-11.4,3.1-69.9,28.8-55,49.8,14.8,21,50.8,16.5,76.9-7.1,26.1-23.7,22-54.7-21.9-42.7h0Z"/>
                <g>
                  <path class="cls-15" d="M316,436.1l-14.6-34c4.6-1.6,8.7-2.1,8.7-2.1l18.6,32.4c-10.2,4.5-12.6,3.7-12.6,3.7h-.1Z"/>
                  <path class="cls-36" d="M355.7,399c2.2,6,3.3,12.9,3.4,19.2-5.1,2.3-9.6,4.4-13.6,6.3-3.7,1.7-6.9,3.3-9.7,4.6-3,1.4-5.4,2.5-7.2,3.3-1.5-.6-2.9-1.4-4.2-2.4-11.8-8.6-15.7-28.2-14.4-30,1.3-.3,3.7-.5,6.8-.5,11.9,0,28.5,1.9,38.8-.5h.1Z"/>
                  <path class="cls-46" d="M375.1,391.7c1.5-.8,3.1-1.6,4.8-2.6-1.7,1-3.3,1.8-4.8,2.6Z"/>
                  <path class="cls-46" d="M390.4,383.2h0c-.6.3-1.1.7-1.7,1,.5-.3,1.1-.6,1.7-1Z"/>
                  <path class="cls-65" d="M390.5,408.1c-11.4,4.7-22.8,6.2-31.4,10.1-.1-6.3-1.2-13.3-3.4-19.2,1.8-.4,3.5-.9,5.3-1.4.6-.2,1.1-.4,1.7-.6.3,0,.6-.2.9-.3.6-.2,1.2-.4,1.7-.6.3,0,.6-.2.9-.3.6-.2,1.2-.5,1.8-.7,2.2-.9,4.5-2,7.1-3.4,1.5-.8,3.1-1.6,4.8-2.6h0c.9-.5,1.8-1,2.7-1.5h0c.9-.5,1.9-1.1,2.9-1.6,1-.6,2.1-1.2,3.2-1.8.5-.3,1.1-.6,1.7-1v24.9h.1,0Z"/>
                  <polygon class="cls-65" points="390.5 408.1 390.4 383.2 390.4 383.2 390.4 383.2 390.5 408.1"/>
                  <g>
                    <path class="cls-15" d="M335.7,429.1c2.8-1.3,6.2-2.9,9.9-4.7-3.2-.9-8.7.4-9.9,4.7Z"/>
                    <path class="cls-15" d="M310,400c-2.8,4.5,1.2,23.7,14.4,30,4.2-13.8-1.6-31.2-14.4-30Z"/>
                    <path class="cls-15" d="M351.1,391.9c-3.8,3.1-6.4,8.6-6.7,13.7-.3-1-.5-2.1-1.1-2.8-.3-.5-1,0-.9.6.2,1.1.7,2.2,1.1,3.3.3,1.1.6,2.3.8,3.5.4,2.4.7,4.8.8,7.3,0,.3.5.4.5,0,.2-2.2.2-4.5,0-6.7.9,3.3,2.9,6.3,5.1,8.5s4.8,4.4,7.6,3c2.9-1.3,3.1-5.3,1.9-7.8-1.3-2.7-3.9-4.8-6.5-6-1.8-.8-3.7-1.2-5.6-1.2,2.4-1.3,4.4-3.2,6.1-5.5,1.7-2.4,3.7-6.1,3-9.1-.3-1.3-1.3-2.4-2.6-2.4s-2.4.7-3.4,1.5h-.1q0,.1,0,.1ZM346.1,408.7h0c2.4-.1,4.9.3,7,1.4,2.2,1.1,4.4,2.8,5.7,5.1.7,1.2,1,2.8.4,4.3-.5,1.4-1.7,2.1-3,1.9-2.5-.3-4.8-2.8-6.3-4.8-1.8-2.3-2.8-5-3.8-7.8h0q0-.1,0-.1ZM354.3,391.8c1.5,0,1.8,1.9,1.5,3.3-.5,2.7-2.1,5.3-3.8,7.3-1.8,2.1-4,3.8-6.5,4.8h-.1c.1-2.6.6-5.1,1.6-7.6,1-2.4,2.5-4.6,4.3-6.4s1.9-1.6,3-1.6v.2h0Z"/>
                    <path class="cls-15" d="M339.5,405c1.6,4.5,1.7,9.7.6,14.6,0,.4-.7.3-.6,0,.4-2.4.5-4.8.4-7.1-.2-2.4-.7-4.6-1.3-6.8,0-.2,0-.5.1-.7,0,0,.1-.1.2-.1.2,0,.5,0,.5.3v-.2q.1,0,0,0Z"/>
                    <path class="cls-15" d="M333.5,405.1c2.1,4.3,3.2,9.3,3.4,14.3,0,.6-.8.8-.8.2-.2-2.4-.7-4.8-1.3-7.1-.6-2.4-1.5-4.6-2.4-6.8-.3-.7.7-1.3,1-.6h.1,0Z"/>
                    <path class="cls-15" d="M328.3,405.4h.2c.2,0,.3.2.3.4.3,1.2.8,2.4,1.1,3.6s.6,2.5.8,3.7c.4,2.5.6,5,.6,7.6s-.8.6-.8.1c0-2.5-.3-5-.8-7.4-.2-1.2-.5-2.3-.7-3.5-.3-1.2-.6-2.6-1.1-3.7v-.6h0c0-.2.2-.3.4-.3h0Z"/>
                  </g>
                </g>
                <path class="cls-38" d="M390.7,379.6c-.6.2-30,15.5-30,15.5l8.5,21.4,28.5-6.1-7-30.9h0Z"/>
                <path class="cls-36" d="M361.3,395c3.5-2.1,7.2-3.8,11-5.3v-1.5c.2-4.7,2.4-9.2,5.7-12.5.3-.3.8.2.5.5-3.1,3.2-4.7,7.6-4.6,12.1,0,2,.5,3.9,1.2,5.7.4.9.8,1.7,1.2,2.5.5.9,1.3,1.7,1.7,2.7.3.8-.8,1.6-1.5,1.2-.9-.6-1.5-1.8-2.1-2.7-.5-1-1-2-1.3-3.1-.3-1-.6-2.1-.7-3.2-3.4,1.6-6.7,3.5-9.9,5.4,1.9,5.9,4.2,11.7,6.8,17.3,4.1-1.9,8.8-3.1,13.3-2.8-.6-.7-1.1-1.4-1.6-2.1-1-1.7-1.5-3.6-1.6-5.6,0-.4.6-.5.6,0,.3,1.8,1.2,3.4,2.3,4.8.4.5.9,1,1.3,1.4h.4c11.4.1,22.7-2.1,33.2-6.3s20.2-10.2,28.5-17.8c4.7-4.3,9.1-9.1,12.7-14.4.3-.4,1,0,.7.4-3.1,4.8-6.6,9.4-10.7,13.6-4,4.1-8.5,7.9-13.3,11.2-9.5,6.6-20.3,11.2-31.6,13.7-5.6,1.2-11.3,1.9-17.1,2,.3.3.3.8.1,1.1-.3.5-.9.7-1.4.4-.4-.2-.8-.5-1.2-.8-.1.3-.4.4-.8.4-2.4,0-4.8,0-7.2.6-2.4.5-4.6,1.4-6.8,2.5-.4.2-1.1.2-1.3-.3-2.9-6.3-5.2-12.8-7-19.4-.3-.5-.3-1.1.3-1.5l.2-.2h0Z"/>
              </g>
            </g>
            <path class="cls-45" d="M403.7,292.9c-.2.4,0,.8.2,1.1v.3c.3,3.8.5,7.6.8,11.4.2,1.8.3,3.7.5,5.6.1,1.7.2,3.5.7,5.2l2.4-.8c0-1.4,0-2.9-.2-4.3-.2-1.9-.3-3.9-.5-5.8-.3-3.7-.7-7.4-1.1-11.1v-.6c.6-.9,1.1-2,1.5-3,.5-1.2.9-2.3,1.3-3.5.8-2.4,1.3-4.9,1.7-7.5,0-.5-.1-1-.7-1.1-.5-.1-1.1.2-1.1.7-.4,2.4-1.1,4.8-2,7.1-.4.9-.8,1.7-1.2,2.6-.6-5.8-1.3-11.5-2-17.3,0-.8-1.4-.9-1.3,0,.4,7,.8,14.1,1.2,21.1,0,0,0,.2-.1.2v-.3q-.1,0,0,0Z"/>
            <path class="cls-45" d="M324.6,284.8c.6,2.4,1.1,4.8,1.7,7.2.3,1.2.6,2.4.9,3.5.2,1,.3,2.3,1,3.1-.2,2.3-.5,4.6-.8,6.9-.2,2.1-.7,4.3-1,6.4l2.9.8c.4-2.4.6-4.9.8-7.2.3-3.2.5-6.4.6-9.6.1-6.6,0-13.2-.4-19.8,0-.9-1.4-.9-1.4,0,.1,5.4,0,11-.3,16.4-.1-.4-.2-.8-.4-1.2-.7-2.4-1.5-4.7-2.3-7.1-.3-.9-1.7-.6-1.5.4l.2.2h0Z"/>
            <path class="cls-45" d="M303.1,306l23.3,6.1,2.6.7,1.1-7.1-25.2-8.7c-1.2,5.4-1.9,9-1.9,9h.1Z"/>
            <g>
              <g>
                <rect class="cls-15" x="378.7" y="215.3" width="21.3" height="23.1" rx="7" ry="7" transform="translate(-42.4 97.9) rotate(-13.6)"/>
                <g>
                  <path class="cls-61" d="M386.6,239c-2.9,0-5.4-2-6.1-4.8l-2.2-9.3c-.8-3.4,1.3-6.7,4.6-7.6l2.6-.6c.5-.1,1-.2,1.5-.2,2.9,0,5.4,2,6.1,4.8l2.2,9.3c.4,1.6.1,3.3-.7,4.7-.9,1.4-2.2,2.4-3.9,2.8l-2.6.6c-.5.1-1,.2-1.5.2h0Z"/>
                  <path class="cls-45" d="M387,217h0c2.7,0,5,1.8,5.6,4.4l2.2,9.3c.7,3.1-1.2,6.2-4.2,6.9l-2.6.6c-.4.1-.9.2-1.4.2-2.7,0-5-1.8-5.6-4.4l-2.2-9.3c-.4-1.5-.1-3,.7-4.4.8-1.3,2.1-2.2,3.6-2.6l2.6-.6c.4-.1.9-.2,1.4-.2M387,216c-.5,0-1.1,0-1.6.2l-2.6.6c-3.6.9-5.9,4.5-5,8.2l2.2,9.3c.7,3.1,3.5,5.2,6.6,5.2s1.1,0,1.6-.2l2.6-.6c3.6-.9,5.9-4.5,5-8.2l-2.2-9.3c-.7-3.1-3.5-5.2-6.6-5.2h0Z"/>
                </g>
              </g>
              <g>
                <path class="cls-38" d="M342.1,237.8c16.6-1.6,50.4,53.8,1.1,48.1s-34.9-38.2-21.7-67.7c13.2-29.4,21.3-19.7,21.3-19.7l9,36.2s-26.3,4.7-9.7,3h0q0,.1,0,.1Z"/>
                <path class="cls-38" d="M382.6,199c8.7,10.8,7.5,25.6,7.5,25.6l-14.1-21.7,6.6-3.8h0q0-.1,0,0Z"/>
                <path class="cls-65" d="M380.2,235.5l.2,10,.3,11.5.3,6c.3,6.7-4.6,12.4-11.2,13.1h0c-6.7.7-12.7-3.9-13.8-10.5l-5.7-35.3,29.9,5.1h0q0,.1,0,0Z"/>
                <path class="cls-38" d="M380.5,243.4l.3,15.1c-12.8,1.3-21.5-8-23.9-14.9,5.5-1.9,23.6-.2,23.6-.2h0Z"/>
                <path class="cls-65" d="M343.8,234.7c-2.6-.3-5.6.8-6.8,3.2-1,2-.6,4.4.2,6.4,1.1,2.6,2.9,5,5.3,6.5,2.5,1.5,5.6,1.9,8.2.9,2.7-1,4.7-3.6,4.9-6.4.3-5.5-7.1-10-11.9-10.5h.1q0-.1,0,0Z"/>
                <path class="cls-38" d="M349.5,243.3c-2.6-1.8-5.3-1.7-8.2-.9-.4.1-.3.8.1.8,2.4-.3,5.1,1.1,6.8,2.3.2.2.7.2,1,.1.3,0,.6-.3.7-.6.3-.6,0-1.3-.5-1.7h.1Z"/>
                <g>
                  <path class="cls-65" d="M380.2,204.7c-2.6-2.1-5.9-3-9.4-3.1-8.9-.2-19.1,5.2-23.4,11.7-6.3,9.4-4.3,20.6,2,29,2.9,3.9,6.7,7.1,11,9.3,7.5,3.8,17.2,4.7,24-.3,4.9-3.6,7.6-9.8,7.9-15.9.6-10.3-3.8-24-12.1-30.6h0q0-.1,0,0Z"/>
                  <path class="cls-38" d="M384.1,222.9c.5,1.2.3,2.5-.5,2.9s-2-.2-2.5-1.3c-.5-1.2-.3-2.5.5-2.9s2,.2,2.5,1.3Z"/>
                  <path class="cls-38" d="M371.1,228.5c.5,1.2.3,2.5-.5,2.9s-2-.2-2.5-1.3c-.5-1.2-.3-2.5.5-2.9s2,.2,2.5,1.3Z"/>
                  <path class="cls-38" d="M381.6,228.4c-2.1-2.5-4.4-4.8-6.7-7.2-.2-.2-.6,0-.4.3,1.7,2.1,3.4,4.1,5.2,6.1.9,1,2,1.9,2.4,3.2.4,1,0,2-.6,2.9-.1.2,0,.6.3.5,1-.2,1.5-1.3,1.5-2.2,0-1.4-.9-2.5-1.8-3.5h.1Z"/>
                  <path class="cls-38" d="M384.8,210.4c-1.3-1.8-6.9.5-7.1,2.7-.4,2.8,9.3.4,7.1-2.7Z"/>
                  <path class="cls-38" d="M365,219.2c-1.7-1.9-7.9,1.3-8,3.8-.1,4.4,10-1.5,8-3.8Z"/>
                  <path class="cls-15" d="M374,238.5c0-.6,5.1-1,5.7-.4s-.5,2.5-2.7,2.7c-1.8.1-3.1-1.5-3-2.2h0Z"/>
                </g>
                <path class="cls-38" d="M351,213s6.1,25.7,0,23.5c-6.1-2.1-8.3-2-8.3-2-9-38.1,8.2-21.5,8.2-21.5h.1,0Z"/>
                <path class="cls-38" d="M348.1,215.3c4.6-12.4,19.2-2,25-13.1,6.1-1.9,11.1,12.1,14,6.7s-7.7-24-22.9-24.3-26.5,6.5-30.7,15.3,14.6,15.3,14.6,15.3h0Z"/>
              </g>
              <g>
                <path class="cls-15" d="M360.9,234l29-7.3c5.7-1.4,9.1-7.5,7.6-13.5h0c-1.5-6-7.4-9.8-13.1-8.3l-29,7.3c-5.7,1.4-9.1,7.5-7.6,13.5h0c1.5,6,7.4,9.8,13.1,8.3Z"/>
                <path class="cls-45" d="M387.2,205.5c4.3,0,8.2,3.3,9.4,8,1.4,5.5-1.5,11-6.4,12.2l-22.3,5.6c-.7.2-1.3.3-2,.3-4.3,0-8.2-3.3-9.4-8-1.4-5.5,1.5-11,6.4-12.2l22.3-5.6c.7-.2,1.3-.3,2-.3M387.2,204.5c-.8,0-1.5,0-2.3.3l-22.3,5.6c-5.5,1.4-8.6,7.4-7.1,13.4,1.3,5.2,5.7,8.7,10.4,8.7s1.5,0,2.3-.3l22.3-5.6c5.5-1.4,8.6-7.4,7.1-13.4h0c-1.3-5.2-5.7-8.7-10.4-8.7h0Z"/>
                <path class="cls-61" d="M388.9,222.7l-9.3,2.3-3.1.8-1.3.3-5.4,1.4h-.3c-.4.2-.8.2-1.2.3-3.4.3-6.6-2-7.5-5.4-1-3.8,1.4-7.7,5.2-8.7l9.8-2.5,5.4-1.4,1.3-.3,2.8-.7h.2c.3,0,.6-.1,1-.1,3.4-.3,6.6,2,7.5,5.4,1,3.8-1.4,7.7-5.2,8.7h.1Z"/>
                <g>
                  <polygon class="cls-15" points="381.9 208.6 374.9 227.3 368.7 228.9 375.6 210.1 381.9 208.6"/>
                  <path class="cls-15" d="M386.9,207.3l-6.9,18.8-3.6.9,6.9-18.8,3.3-.8h.3q0-.1,0,0Z"/>
                </g>
                <path class="cls-63" d="M387.2,217.5l-16.1,4c-1,.2-2-.4-2.2-1.3h0c-.2-1,.4-2,1.3-2.2l16.1-4c1-.2,2,.4,2.2,1.3h0c.2,1-.4,2-1.3,2.2Z"/>
              </g>
            </g>
            <g class="cls-43">
              <polygon class="cls-14" points="365.4 329 374.1 329 374.9 331.3 364.5 331.3 365.4 329"/>
              <rect class="cls-15" x="371.3" y="312.4" width="5.8" height="5.6" rx=".8" ry=".8"/>
              <rect class="cls-15" x="364.7" y="307.8" width="4.8" height="4.6" rx=".7" ry=".7"/>
              <path class="cls-14" d="M367.2,297.8c-2.4-.7-6,0-7.6,1,.3.3,1.1.5,1.6.9,1.6,1.1,1.9,2.9,3.2,4.3,1.3,1.6,4.1,3.6,7.1,3.7,0-2.1-1.9-5.1-3.7-6.6-.4-.3-1.9-1.3-2.3-1.3,3.1.4,5.9,3.6,7.1,6.4.2.4.3.9.6,1.3.3-3.8-2.3-8.7-6-9.7h0Z"/>
              <path class="cls-14" d="M374,307.5c1.1-.7,2-2.3,6.1-3.2.5,0,.8,0,1.1-.5.6-.9,0-3.2-4.2-.1-.9.7-2.4,2.4-3,3.8h0Z"/>
              <path class="cls-15" d="M362.8,306.6v3.9h-3.1c-.5,0-.9.1-1.1.3s-.4.5-.5,1v1.9c0,1.1-.1,1.9-.3,2.5-.2.5-.4.8-.7,1.1s-.6.4-1.1.6c.5.2.9.5,1.2.8s.5.7.7,1.2.3,1.4.3,2.6,0,1.8.2,2.1.3.6.5.7,3.3.2,4.1.2v3.8h-4c-1.5,0-2.6-.2-3.3-.5s-1.1-.8-1.4-1.5-.4-1.6-.4-2.9,0-.6,0-.9v-.5c0-.9,0-1.6-.2-1.9s-.4-.7-.7-.8-.8-.3-1.4-.3v-4.1c.6,0,1.1,0,1.4-.3s.5-.5.7-.9.2-1,.2-2v-.9c0-1.4.1-2.4.3-3s.6-1.1,1-1.4c.3-.3.7-.4,1.3-.6.7-.2,1.5-.2,2.4-.2h4.1-.2Z"/>
              <path class="cls-15" d="M380.8,306.8c.9,0,1.7,0,2.4.2.5.1.9.3,1.3.6s.7.8,1,1.4.3,1.6.3,3,0,.4,0,.5v.4c0,.9,0,1.6.2,2s.4.7.7.9.8.3,1.4.3v4.1c-.6,0-1,.1-1.4.3s-.5.5-.7.8-.2,1-.2,1.9,0,.4,0,.5v.9c0,1.3-.1,2.2-.4,2.9s-.7,1.1-1.4,1.5-1.7.5-3.3.5h-4v-3.8c.8,0,3.8,0,4.1-.2s.4-.4.5-.7.2-1,.2-2.1,0-2,.3-2.6.4-.9.7-1.2.6-.5,1.2-.8c-.5-.2-.9-.4-1.1-.6-.3-.3-.5-.7-.7-1.1-.2-.6-.3-1.4-.3-2.5v-1.9c-.1-.4-.3-.8-.5-1s-.6-.3-1.1-.3h-3.1v-3.9h4.1-.2Z"/>
            </g>
          </g>
          <g>
            <g>
              <path class="cls-66" d="M264.9,325.9c-3.2,0-3.2,5,0,5s3.2-5,0-5Z"/>
              <path class="cls-66" d="M367.1,435.4c-3.2,0-3.2,5,0,5s3.2-5,0-5Z"/>
              <path class="cls-66" d="M486.5,314.7c-3.2,0-3.2,5,0,5s3.2-5,0-5Z"/>
              <path class="cls-66" d="M561.7,207.9c-3.2,0-3.2,5,0,5s3.2-5,0-5Z"/>
              <path class="cls-66" d="M180.4,253.4c-3.2,0-3.2,5,0,5s3.2-5,0-5Z"/>
              <path class="cls-66" d="M140.2,235.9c-4.5,0-4.5,6.9,0,6.9s4.5-6.9,0-6.9Z"/>
              <path class="cls-66" d="M541.9,288.7c-4.5,0-4.5,6.9,0,6.9s4.5-6.9,0-6.9Z"/>
            </g>
            <g>
              <path class="cls-69" d="M489.9,368.9l.9-5.3.9,5.3c.3,1.6,1.6,2.9,3.2,3.2l5.3.9-5.3.9c-1.6.3-2.9,1.6-3.2,3.2l-.9,5.3-.9-5.3c-.3-1.6-1.6-2.9-3.2-3.2l-5.3-.9,5.3-.9c1.6-.3,2.9-1.6,3.2-3.2Z"/>
              <path class="cls-69" d="M210.2,310.9l.8-4.9.9,4.9c.3,1.5,1.5,2.7,3,2.9l4.9.8-4.9.9c-1.5.3-2.7,1.5-2.9,3l-.8,4.9-.9-4.9c-.3-1.5-1.5-2.7-3-2.9l-4.9-.8,4.9-.9c1.5-.3,2.7-1.5,2.9-3Z"/>
            </g>
          </g>
          <g>
            <path class="cls-6" d="M204.4,136.2l-8.3-5-3.6,6c-1.7-.5-3.4-.7-5.1-.8l-1.7-6.8-9.4,2.4,1.7,6.8c-1.5.8-2.9,1.9-4.2,3.1l-6-3.6-5,8.3,6,3.6c-.5,1.7-.7,3.4-.8,5.1l-6.8,1.7,2.4,9.4,6.8-1.7c.8,1.5,1.9,2.9,3.1,4.2l-3.6,6,8.3,5,3.6-6c1.7.5,3.4.7,5.1.8l1.7,6.8,9.4-2.4-1.7-6.8c1.5-.8,2.9-1.9,4.2-3.1l6,3.6,5-8.3-6-3.6c.5-1.7.7-3.4.8-5.1l6.8-1.7-2.4-9.4-6.8,1.7c-.8-1.5-1.9-2.9-3.1-4.2l3.6-6ZM191.1,149.1c3.6,2.1,4.7,6.8,2.6,10.3-2.1,3.6-6.8,4.7-10.3,2.6-3.6-2.1-4.7-6.8-2.6-10.3,2.1-3.6,6.8-4.7,10.3-2.6Z"/>
            <path class="cls-9" d="M479.3,54.1l-8.7-1.2-.8,6.3c-1.6.2-3.1.6-4.5,1.2l-3.8-5-7,5.3,3.8,5c-1,1.2-1.8,2.6-2.4,4.1l-6.3-.8-1.2,8.7,6.3.8c.2,1.6.6,3.1,1.2,4.5l-5,3.8,5.3,7,5-3.8c1.2,1,2.6,1.8,4.1,2.4l-.8,6.3,8.7,1.2.8-6.3c1.6-.2,3.1-.6,4.5-1.2l3.8,5,7-5.3-3.8-5c1-1.2,1.8-2.6,2.4-4.1l6.3.8,1.2-8.7-6.3-.8c-.2-1.6-.6-3.1-1.2-4.5l5-3.8-5.3-7-5,3.8c-1.2-1-2.6-1.8-4.1-2.4,0,0,.8-6.3.8-6.3ZM473.1,67.6c4.8.7,8.2,5.1,7.6,10-.7,4.8-5.1,8.2-9.9,7.6-4.8-.7-8.2-5.1-7.6-10,.7-4.8,5.1-8.2,10-7.6h-.1Z"/>
            <g id="e7ZfSTxtdFp169">
              <g>
                <g>
                  <path class="cls-45" d="M443.9,47.2c-.3,1-.6,2.1-1,3.1-3.7,9.7-11.3,14.7-19.6,16-15.3,2.3-32.7-8.4-30.7-27,.2-1.8.6-3.5,1.2-5.2,2.3-6.8,7.6-12.7,14.3-15.5,3.5-1.4,7.1-2.1,10.7-2.1,15.6,0,30,12.6,25.2,30.7h-.1Z"/>
                  <path class="cls-48" d="M418.7,16.5c0,.2-.1.4-.2.6-.6,2.2-.5,4.4.4,6.4.8,1.8,2.1,3.3,3.2,5,.6,1,1.4,2.5.6,3.6-.7,1-2.5,1.8-3.5,2.8-2.9,3-2.7,7.5-.3,10.8,2.6,3.5,7.3,4.4,11.5,3.9,4-.4,7.8-2.4,11.8-2.5.5,0,1.1,0,1.7,0,4.8-18-9.6-30.7-25.2-30.7ZM417.7,55.7c-1.3-.7-2.6-1.3-4-1.9-.5-.2-.8-.4-1.4-.8-.2,0-.5-.3-.7-.5-.1,0-.5-.4-.5-.4h0c-.7-.7-1.1-1.4-1-2.6,0-1.5.7-2.9,1.2-4.2,1.2-2.9,2.4-6.3.9-9.3-1.5-3.1-5-4.5-8.3-4.5s-6.8,1.8-10.2,2.6c-.6,1.7-1,3.4-1.2,5.2-2,18.5,15.4,29.3,30.7,27,.2-1.3.3-2.6,0-3.9-.6-3.1-2.9-5.2-5.6-6.7h.1Z"/>
                </g>
                <path class="cls-36" d="M444.2,46.1c0,.4-.2.8-.3,1.1-.3,1-.6,2.1-1,3.1-3.7,9.7-11.3,14.7-19.6,16-15.3,2.3-32.7-8.4-30.7-27,.2-1.8.6-3.5,1.2-5.2.6-1.8,1.4-3.6,2.5-5.2-.1.6-.2,1.2-.3,1.8-2,18.5,15.4,29.3,30.7,27,6.9-1,13.4-4.8,17.5-11.6h0Z"/>
                <path class="cls-45" d="M457.9,23.5c-.3,1.5-1.3,2.9-2.3,4.1-3.1,4.1-6.8,7.5-10.9,10.6-4,3-8.3,5.5-12.6,7.9-10,5.3-20.4,9.9-31.1,13.6-.2,0-.4,0-.6.2-2.4.8-4.8,1.6-7.2,2.4-2.8.8-5.7,2-8.6,1.8-2.5-.2-5-1.9-5.5-4.5s1.3-4.9,3-6.6c3.2-3.2,6.6-6.1,10.3-8.8,0,1.2.3,2.4.5,3.5-3.1,2.6-6.1,5.4-8.7,8.4-1,1.2-2.2,3-.1,3.7,2,.7,4.6-.5,6.5-1.1,2.2-.7,4.4-1.4,6.7-2.1,2.6-.9,5.2-1.8,7.8-2.8,9.1-3.5,18.2-7.5,26.7-12.3,4.2-2.4,8.3-5,12-8.1,3-2.5,5.8-5.3,8.3-8.5.5-.7,1-1.4,1.4-2.2h0c-.2,0-.4,0-.7-.2-2.1-.2-4.7.4-6.9.8-2.4.4-4.8.9-7.2,1.5-1.2-1.3-2.5-2.4-4-3.4,4.5-1.6,9.2-2.7,14-3.3,2.5-.3,5.7-.8,7.8,1,1.3,1.1,1.8,2.8,1.4,4.4h0Z"/>
              </g>
              <path class="cls-63" d="M424,8.1c.7,1.8,2.8,3.1,4.9,2.9,2.1-.1,3.9-1.7,4.2-3.6.3-2.3-2.1-5.5-4.7-5.4-3.2.1-5.5,3.2-4.4,6h0Z"/>
              <path class="cls-15" d="M393.3,84.8c2.5,1.9,6.2,2.1,8.8.4,6.5-3.9,3.4-14-3.8-14.6-7.5-.6-10.9,9.6-5,14.1h0Z"/>
            </g>
            <g id="e7ZfSTxtdFp178">
              <polygon class="cls-36" points="509.2 92.8 528 98.9 523.9 79.5 505 73.3 509.2 92.8"/>
              <polygon class="cls-45" points="528 98.9 542.8 85.7 538.6 66.2 523.9 79.5 528 98.9"/>
              <polygon class="cls-15" points="505 73.3 523.9 79.5 538.6 66.2 519.7 60 505 73.3"/>
              <g>
                <line class="cls-21" x1="540.7" y1="103.3" x2="540.7" y2="82.2"/>
                <line class="cls-21" x1="540.7" y1="105.5" x2="540.7" y2="108.5"/>
              </g>
              <line class="cls-21" x1="535.6" y1="99.1" x2="535.6" y2="88.8"/>
            </g>
            <g id="e7ZfSTxtdFp192">
              <g>
                <path class="cls-45" d="M481.8,162.9s14.5-10.5,33.8-19l-29.9-44.4-26.9,24s-22.8,11.8-41.7,5l-2.1,6.8,28.6,41.4s23-.3,38.1-13.7h.1Z"/>
                <path class="cls-20" d="M457.6,121.2l22,38.9s-17,14.1-34.9,10.4l-26.8-44.1c24.4,5.3,24.7-13.3,39.8-5.2h-.1Z"/>
                <path class="cls-20" d="M457.6,121.2c-1-12.5,22-25.2,22-25.2l29.8,45.2s-17.9.8-29.8,18.9l-22-38.9h0Z"/>
                <line class="cls-22" x1="457.6" y1="121.2" x2="479.6" y2="160.1"/>
              </g>
              <path class="cls-57" d="M441.5,134.9c-1.1-2-2.1-4-3.4-5.9-.1-.2-.4-.4-.7-.3-2.5,1-5.2,1.7-7.8,2.5-.3,0-.6,0-.7.3-.4.3-.3,1,.1,1.2.6,1.2,1.2,2.4,1.9,3.6.3.6.7,1.3,1,1.9.3.5.7,1,1.3,1.1s1.3-.2,1.9-.4c.7-.3,1.3-.6,2-1,1.4-.7,2.7-1.3,4.1-2s.5-.7.3-1.1h0q0,.1,0,0ZM436.9,136.4c-.6.3-1.1.6-1.7.9-.3.2-.6.3-.9.5-.2.1-.5.3-.7.3-.4,0-.6-.9-.8-1.2-.3-.6-.6-1.1-.9-1.7-.5-.9-1-1.9-1.5-2.8,2.2-.8,4.4-1.7,6.7-2.3.7,1.7,1.6,3.3,2.5,4.9-.9.5-1.8,1-2.8,1.4h.1,0Z"/>
              <path class="cls-57" d="M454,122.8c-4.3-1.4-7.5,2.9-11.3,3.9-.7.2-.4,1.2.3,1.1,1.9-.4,3.5-1.5,5.2-2.4s3.5-1.7,5.5-1c1,.3,1.4-1.2.4-1.6h-.1Z"/>
              <path class="cls-57" d="M455.2,126.9c-.9,0-1.8,0-2.7.2-.9.1-1.8.4-2.7.7-1.7.6-3.3,1.6-4.6,2.8-.6.6.3,1.5.9.9,1.2-1,2.7-1.8,4.2-2.3.8-.2,1.5-.4,2.3-.5s1.7,0,2.5,0,.9-.4.9-.9-.4-.8-.9-.9h.1Z"/>
              <path class="cls-57" d="M458.3,132.6c-8.4.8-14.6,7.3-22.6,9.3s-.5,1.4.3,1.3c4-.8,7.6-2.8,11.1-4.7s7.1-3.7,11.2-4.1c1.2,0,1.2-2,0-1.9h0q0,.1,0,0Z"/>
              <path class="cls-57" d="M446,142.6c-.7.2-1.3.5-1.9.8-.5.2-1.1.5-1.7.6-1.2.4-2.5.7-3.7.8-.4,0-.7.3-.7.7s.3.7.7.7c1.4,0,2.8-.3,4.1-.7.7-.2,1.3-.4,1.9-.7.7-.3,1.3-.6,1.9-1.1.5-.5,0-1.2-.6-1.1h0Z"/>
              <path class="cls-57" d="M469.1,148.8c-1-3.4-3.4-7.6-7.5-7.4-2.4.1-4.5,1.5-6.4,2.7-2,1.3-4.1,2.5-6.2,3.6-2.5,1.2-5,2.4-7.6,3.4-.4.1-.5.5-.4.8-.6,0-1.1.5-.8,1.2,1,1.8,2.2,3.5,3.3,5.3.2.4.8.6,1.2.3,3.6-2.1,7.4-4,11.3-5.5,2-.7,4-1.4,6-2s4.1-1.1,6.2-1.4c.5,0,1-.5.9-1.1h0q0,.1,0,0ZM461.7,149.7c-2.1.6-4.1,1.2-6.1,2-3.8,1.4-7.4,3.1-10.9,5.1-.9-1.5-1.8-3.1-2.9-4.5h0c4.3-1.3,8.3-3,12.2-5.3,3-1.7,7.5-5.8,10.8-2.6,1.1,1.1,1.7,2.6,2.3,4-1.8.4-3.6.8-5.4,1.3Z"/>
              <path class="cls-57" d="M467.9,151.5c-1.8.5-3.6,1.3-5.4,2s-3.6,1.3-5.4,2c-3.6,1.3-7.1,2.7-10.7,4-.8.3-.5,1.7.4,1.4,3.6-1.3,7.3-2.5,10.9-3.9,1.8-.7,3.6-1.3,5.4-2s3.7-1.2,5.4-2c.9-.4.3-1.8-.6-1.5h0Z"/>
              <path class="cls-57" d="M457.4,159.8c-.4,0-.9.2-1.3.4-.3.2-.6.3-1,.5-.7.3-1.3.6-2,.8-1.4.5-2.9.9-4.4,1.2-.4,0-.6.5-.5.9s.5.6.9.5c1.6-.2,3.1-.6,4.6-1,.8-.2,1.5-.5,2.2-.8s1.7-.6,2.1-1.3c.3-.5-.1-1.1-.7-1.1h.1q0-.1,0,0Z"/>
              <path class="cls-57" d="M476.5,104.1c-.9,0-1.8.6-2.6,1s-1.5.8-2.2,1.3c-1.5,1-3,2.1-4.3,3.4-2.7,2.5-4.8,5.5-6.4,8.7-.4.8.8,1.5,1.2.7,1.6-3.1,3.7-5.9,6.3-8.2,1.3-1.2,2.6-2.2,4.1-3.2.7-.4,1.4-.9,2.2-1.2.7-.4,1.8-.7,2.4-1.2.5-.4.1-1.3-.5-1.3h-.2Z"/>
              <path class="cls-57" d="M468.6,115.4c-.2-.2-.5-.2-.7,0-.5.4-.9.8-1.4,1.3-.4.5-.8,1-1.2,1.5-.8,1-1.6,2-2.4,2.9-.2.3-.3.7,0,.9s.7.3.9,0c.8-1,1.6-1.9,2.5-2.9.4-.5.8-.9,1.2-1.4s.9-1,1.1-1.6c.1-.2.1-.5,0-.7Z"/>
              <path class="cls-57" d="M488.8,118c-1-1.9-2.3-3.9-4.3-4.8-2.3-1-4.8,0-6.9,1.1-2.1,1.2-4.1,2.6-6,4.2s-3.7,3.4-5.1,5.5h0c-.6.1-1.2.8-.8,1.4,1.3,2,2.9,3.8,4.3,5.7.3.4.9.3,1.2,0,5.4-4.5,11.1-8.5,17.3-11.9.4-.2.5-.8.3-1.1h0ZM467.3,124.7h.1c1.5-1.6,3-3.2,4.7-4.6,1.6-1.4,3.4-2.7,5.3-3.8,1.8-1,4.1-2.5,6.2-1.6,1.5.6,2.5,2.1,3.3,3.5-5.7,3.2-11.1,6.9-16.2,11.1-1.1-1.5-2.2-3-3.4-4.4v-.2Z"/>
              <path class="cls-57" d="M490.3,121.3c-.6-.3-1,0-1.6.3-.5.2-.9.4-1.4.7-.9.5-1.9,1-2.7,1.6-1.7,1.2-3.3,2.7-4.6,4.3-.5.6.4,1.6.9.9,1.3-1.5,2.8-2.8,4.4-3.9.8-.6,1.7-1.1,2.6-1.5.4-.2.9-.4,1.3-.6.5-.2,1.1-.3,1.4-.8.1-.3.1-.8-.3-.9h0q0-.1,0-.1Z"/>
              <path class="cls-57" d="M492.5,124.8c-.2-.2-.4-.3-.7-.3s-.4.2-.6.3c-.1,0-.3.2-.4.3-.3.2-.6.4-.9.6-.6.4-1.2.8-1.8,1.2s-.4.5-.2.8.5.4.8.2c.7-.3,1.3-.7,1.9-1.1.3-.2.6-.4,1-.6.1,0,.3-.2.4-.3,0,0,.2,0,.3-.2.2-.1.3-.2.4-.4.2-.2,0-.6,0-.8l-.2.3h0Z"/>
              <path class="cls-57" d="M493.9,129.2c-.9,0-1.8.5-2.5.9-.8.3-1.5.7-2.3,1.1-1.6.8-3.2,1.7-4.6,2.7-2.9,2-5.6,4.4-7.8,7.1-.5.6.4,1.5.9.9,2.3-2.6,4.8-4.8,7.7-6.7,1.4-.9,2.8-1.8,4.3-2.5.8-.4,1.5-.7,2.3-1.1.8-.3,1.8-.5,2.4-1,.5-.4.5-1.4-.4-1.4Z"/>
              <path class="cls-57" d="M478.8,131.2c-.9-1.1-2.4-1.5-3.8-1.1-1.6.6-2.6,2.1-2.9,3.8,0,.3,0,.5.2.6.5,1.4,1.7,2.4,3.2,2.5,1.4.2,2.8-.6,3.6-1.8.8-1.3.6-2.9-.3-4h0ZM477.8,133.5h0v.4h0c0,.1-.1.2-.2.3h0l-.2.2h-.1s-.2.1-.3.2h-.8c-.1,0-.3,0-.4-.1h-.2c-.1,0-.2-.1-.3-.2h-.1c-.1,0-.2-.2-.3-.3h-.1v-.2c0-.1-.1-.2-.2-.3,0-.1-.2-.2-.3-.3.3-.7.8-1.3,1.5-1.7.4-.2.9-.3,1.4-.3h.4c.2.1.3.1.5.3h.1c0,.1.1.3.2.4v.2h0c0,.1,0,.2.1.4v.2h0v.2l-.7.6h0Z"/>
              <path class="cls-57" d="M483.8,140.3c-.2-.3-.7-.4-1-.2-1.4,1-2.6,2.3-3.9,3.4-.3.2-.3.7,0,1s.7.3,1,0c.6-.5,1.3-1.1,1.9-1.6s1.3-1.1,1.9-1.6c.3-.3.3-.7,0-1h.1Z"/>
              <path class="cls-57" d="M498.2,135.4c-1.6.5-3.2,1.3-4.7,2.1-1.6.8-3.1,1.7-4.5,2.7-2.9,2-5.5,4.3-7.8,6.9-.6.6.3,1.6.9.9,2.4-2.4,5-4.6,7.8-6.4s2.8-1.8,4.2-2.5c1.5-.8,3.1-1.4,4.7-2.1.9-.4.3-1.9-.7-1.6h.1Z"/>
            </g>
            <g id="e7ZfSTxtdFp226">
              <g>
                <circle class="cls-38" cx="304.4" cy="119.1" r="11.1"/>
                <path class="cls-38" d="M291.2,123.4c1.8,5.9-1.6,12.1-7.5,13.9s-12.1-1.6-13.9-7.5,1.6-12.1,7.5-13.9,12.1,1.6,13.9,7.5Z"/>
                <path class="cls-38" d="M256.2,106.7l58.9-17.7c6.5-2,13.4,1.7,15.3,8.2l1.8,6c2,6.8-1.8,13.9-8.6,15.9l-57.9,17.4c-6.8,2-13.9-1.8-15.9-8.6l-1.8-6c-2-6.5,1.7-13.4,8.2-15.3Z"/>
                <rect class="cls-48" x="245.4" y="92.7" width="86.1" height="29.6" rx="11.8" ry="11.8" transform="translate(-18.7 87.4) rotate(-16.7)"/>
                <g>
                  <path class="cls-45" d="M288.1,121c1.3,4.3-1.2,8.9-5.5,10.2s-8.9-1.2-10.2-5.5,1.2-8.9,5.5-10.2,8.9,1.2,10.2,5.5Z"/>
                  <path class="cls-45" d="M310.6,114.3c1.3,4.3-1.2,8.9-5.5,10.2s-8.9-1.2-10.2-5.5,1.2-8.9,5.5-10.2,8.9,1.2,10.2,5.5Z"/>
                  <path class="cls-15" d="M307.8,114.7c.8,2.8-.7,5.7-3.5,6.5s-5.7-.7-6.5-3.5.7-5.7,3.5-6.5,5.7.7,6.5,3.5Z"/>
                  <path class="cls-15" d="M285.4,121.5c.8,2.8-.7,5.7-3.5,6.5s-5.7-.7-6.5-3.5.7-5.7,3.5-6.5,5.7.7,6.5,3.5Z"/>
                </g>
                <path class="cls-45" d="M272.7,117.3c-.9,6.2-6.7,10.5-12.9,9.6s-10.5-6.7-9.6-12.9,6.7-10.5,12.9-9.6,10.5,6.7,9.6,12.9Z"/>
                <path class="cls-45" d="M327,101c-.9,6.2-6.7,10.5-12.9,9.6s-10.5-6.7-9.6-12.9,6.7-10.5,12.9-9.6,10.5,6.7,9.6,12.9Z"/>
                <g>
                  <g>
                    <rect class="cls-38" x="272.5" y="92.6" width="27.8" height="18.3" rx="2.8" ry="2.8" transform="translate(-17.2 86.6) rotate(-16.7)"/>
                    <rect class="cls-45" x="272" y="90.7" width="27.8" height="17.9" rx="3.1" ry="3.1" transform="translate(-16.6 86.4) rotate(-16.7)"/>
                    <path class="cls-61" d="M294.6,92l2.6,8.6c.3,1.1-.3,2.4-1.5,2.7l-15.7,4.7c-.4.1-.7.1-1.1,0-.7-.2-1.4-.7-1.6-1.5l-2.6-8.6c-.2-.6.2-1.3.8-1.5l17.6-5.3c.6-.2,1.3.2,1.5.8h0q0,0,0,.1Z"/>
                  </g>
                  <polygon class="cls-15" points="291.5 91.6 287.9 105.6 280.4 107.9 284 93.9 291.5 91.6"/>
                  <path class="cls-15" d="M282.4,94.4l-3.5,13.7c-.7-.2-1.4-.7-1.6-1.5l-1-3.5,1.9-7.4,4.3-1.3h-.1,0Z"/>
                  <polygon class="cls-15" points="294.8 92.9 296.1 97 294.3 103.7 291.9 104.4 294.8 92.9"/>
                </g>
                <g>
                  <path class="cls-30" d="M286.9,113.7c.1.4-.1.9-.5,1s-.9-.1-1-.5.1-.9.5-1,.9.1,1,.5Z"/>
                  <path class="cls-29" d="M288.9,115.5c.1.4-.1.9-.5,1s-.9-.1-1-.5.1-.9.5-1,.9.1,1,.5Z"/>
                  <path class="cls-26" d="M289.6,112.9c.1.4-.1.9-.5,1s-.9-.1-1-.5.1-.9.5-1,.9.1,1,.5Z"/>
                  <path class="cls-27" d="M291.5,114.7c.1.4-.1.9-.5,1s-.9-.1-1-.5.1-.9.5-1,.9.1,1,.5Z"/>
                  <path class="cls-25" d="M292.2,112.1c.1.4-.1.9-.5,1s-.9-.1-1-.5.1-.9.5-1,.9.1,1,.5Z"/>
                  <path class="cls-24" d="M294.1,113.9c.1.4-.1.9-.5,1s-.9-.1-1-.5.1-.9.5-1,.9.1,1,.5Z"/>
                  <path class="cls-28" d="M294.8,111.4c.1.4-.1.9-.5,1s-.9-.1-1-.5.1-.9.5-1,.9.1,1,.5Z"/>
                </g>
                <g>
                  <g>
                    <path class="cls-15" d="M262.3,111.5l-1.1,1.3c-.2.2-.4.3-.6.2l-1.7-.5c-.3,0-.5-.3-.6-.6l-.7-2.4c-.1-.4,0-.9.4-1l2.8-.8c.4-.1.8.2.9.6l.7,2.4c0,.3,0,.6-.1.8h0Z"/>
                    <path class="cls-15" d="M260.8,118.6l1.1-1.3c.2-.2.4-.3.6-.2l1.7.5c.3,0,.5.3.6.6l.7,2.4c.1.4,0,.9-.4,1l-2.8.8c-.4.1-.8-.2-.9-.6l-.7-2.4c0-.3,0-.6.1-.8h0Z"/>
                  </g>
                  <g>
                    <path class="cls-15" d="M257.6,114.9l1.3.9c.2.1.2.3.2.5l-.6,1.5c0,.2-.3.4-.6.5l-2.4.7c-.4.1-.9,0-1-.3l-.7-2.3c0-.3.2-.7.6-.8l2.4-.7h.8Z"/>
                    <path class="cls-15" d="M265.6,115.6l-1.3-.9c-.2-.1-.2-.3-.2-.5l.6-1.5c0-.2.3-.4.6-.5l2.4-.7c.4-.1.9,0,1,.3l.7,2.3c0,.3-.2.7-.6.8l-2.4.7h-.8Z"/>
                  </g>
                </g>
                <g>
                  <g>
                    <path class="cls-31" d="M268.8,104.4h0c-.8.2-1.6-.2-1.9-1l-.3-1c-.2-.8.2-1.6,1-1.9h0c.8-.2,1.6.2,1.9,1l.3,1c.2.8-.2,1.6-1,1.9Z"/>
                    <path class="cls-15" d="M269.5,101.5c.2.8-.2,1.6-1,1.9-.8.2-1.6-.2-1.9-1-.2-.8.2-1.6,1-1.9.8-.2,1.6.2,1.9,1Z"/>
                  </g>
                  <g>
                    <path class="cls-31" d="M303.3,94h0c-.8.2-1.6-.2-1.9-1l-.3-1c-.2-.8.2-1.6,1-1.9h0c.8-.2,1.6.2,1.9,1l.3,1c.2.8-.2,1.6-1,1.9Z"/>
                    <path class="cls-15" d="M304,91.2c.2.8-.2,1.6-1,1.9-.8.2-1.6-.2-1.9-1-.2-.8.2-1.6,1-1.9.8-.2,1.6.2,1.9,1Z"/>
                  </g>
                </g>
                <g>
                  <g>
                    <circle class="cls-15" cx="314" cy="93.6" r="2.7"/>
                    <circle class="cls-15" cx="317.6" cy="105.2" r="2.7"/>
                  </g>
                  <g>
                    <path class="cls-15" d="M312.6,100.3c.4,1.4-.4,3-1.8,3.4s-3-.4-3.4-1.8.4-3,1.8-3.4,3,.4,3.4,1.8Z"/>
                    <path class="cls-15" d="M324.2,96.8c.4,1.4-.4,3-1.8,3.4s-3-.4-3.4-1.8.4-3,1.8-3.4,3,.4,3.4,1.8Z"/>
                  </g>
                  <rect class="cls-48" x="309" y="100.2" width="1.9" height="1.9" transform="translate(-16 93.3) rotate(-16.7)"/>
                  <rect class="cls-63" x="313.1" y="92.7" width="1.9" height="1.9" transform="translate(-13.7 94.2) rotate(-16.7)"/>
                  <rect class="cls-17" x="316.5" y="104.3" width="1.9" height="1.9" transform="translate(-16.9 95.7) rotate(-16.7)"/>
                  <rect class="cls-45" x="320.6" y="96.8" width="1.9" height="1.9" transform="translate(-14.5 96.5) rotate(-16.7)"/>
                </g>
              </g>
              <path class="cls-38" d="M326.9,96.7c-1.4-3.8-4.8-6.7-9.1-7.4-6.2-.9-12,3.4-12.9,9.6-.2,1.5-.1,2.9.2,4.2-.6-1.7-.9-3.6-.6-5.5.9-6.2,6.7-10.5,12.9-9.6,4.8.7,8.4,4.2,9.4,8.7,0,0,.1,0,.1,0Z"/>
              <path class="cls-38" d="M272.6,113c-1.4-3.8-4.8-6.7-9.1-7.4-6.2-.9-12,3.4-12.9,9.6-.2,1.5-.1,2.9.2,4.2-.6-1.7-.9-3.6-.6-5.5.9-6.2,6.7-10.5,12.9-9.6,4.8.7,8.4,4.2,9.4,8.7h.1Z"/>
            </g>
            <g id="e7ZfSTxtdFp282">
              <g>
                <g>
                  <path class="cls-20" d="M299.8,196.1v46.6c0,2.9-1.8,5.6-4.2,6.1l-71.5,15.3c-3.7.8-6.8-1.6-6.8-5.3v-60.7c0-3.7,3.1-6.8,6.8-6.8l71.5-.2c2.3,0,4.2,2.3,4.2,5.2v-.2h0Z"/>
                  <path class="cls-48" d="M299.8,196.1v.6l-82.4,2.1v-.8c0-3.7,3.1-6.8,6.8-6.8l71.5-.2c2.3,0,4.2,2.3,4.2,5.2h-.1Z"/>
                  <g>
                    <path class="cls-15" d="M228.1,194.9c0,1.1-.9,2-2,2s-2-.9-2-2,.9-2,2-2,2,.9,2,2Z"/>
                    <path class="cls-15" d="M235,194.8c0,1.1-.9,2-1.9,2s-1.9-.8-1.9-1.9.9-2,1.9-2,1.9.9,1.9,1.9Z"/>
                    <path class="cls-15" d="M241.6,194.7c0,1.1-.8,1.9-1.8,2-1,0-1.9-.8-1.9-1.9s.8-1.9,1.9-2c1,0,1.8.8,1.8,1.9Z"/>
                  </g>
                </g>
                <path class="cls-63" d="M259.3,213l12.7,6.7c1.2.6,1.2,2.6,0,3.5l-12.7,9.3c-1.2.9-2.8.1-2.8-1.4v-16c0-1.6,1.5-2.7,2.8-2h0Z"/>
              </g>
              <g>
                <path class="cls-48" d="M295.3,248.8l-70.7,15.1c-4,.9-7.3-1.7-7.3-5.7v-5.2l82.4-14.7v4c0,3.1-2,6-4.5,6.5h.1Z"/>
                <g>
                  <g>
                    <path class="cls-63" d="M271.5,249.3v-1.7l-37.7,7.4c-.6.1-.9.7-.8,1.2,0,.5.5.9,1,.9s.1,0,.2,0l37.3-7.3v-.4h0Z"/>
                    <path class="cls-52" d="M295.6,242.9l-22.7,4.5c0,.6.1,1.2.2,1.8v.3l22.9-4.5c.6-.1.9-.7.8-1.2-.1-.6-.7-.9-1.2-.8h0q0-.1,0-.1Z"/>
                  </g>
                  <path class="cls-63" d="M223.7,259.1c-.5,0-.9-.3-1-.9s.3-1.1.8-1.2l18.9-3.7c.6-.1,1.1.3,1.2.8.1.6-.3,1.1-.8,1.2l-18.9,3.7h-.2Z"/>
                  <path class="cls-63" d="M274.9,248c0,2.1-1.6,4.1-3.6,4.5s-3.7-1-3.7-3.1,1.6-4.1,3.7-4.5c2-.4,3.6,1,3.6,3.1Z"/>
                </g>
                <path class="cls-52" d="M273.1,248.3c0,1-.8,2-1.8,2.2s-1.8-.5-1.8-1.5.8-2,1.8-2.2,1.8.5,1.8,1.5Z"/>
              </g>
            </g>
            <g>
              <path class="cls-57" d="M380.8,151.4c-2,0-3.8-.7-5.3-2l2.8-3.2c.8.7,1.7,1,2.8.9,1,0,1.9-.5,2.6-1.3s1-1.7,1-2.8-.5-1.9-1.3-2.6l2.8-3.2c1.6,1.4,2.6,3.4,2.7,5.5s-.6,4.2-2,5.8-3.4,2.6-5.5,2.7h-.5v.2q-.1,0-.1,0Z"/>
              <path class="cls-69" d="M554.4,151.4c-1,0-2.1-.2-3.1-.6-2-.8-3.5-2.4-4.3-4.4s-.8-4.2,0-6.1c.8-2,2.4-3.5,4.4-4.3l1.6,3.9c-.9.4-1.7,1.1-2.1,2.1s-.4,2,0,2.9,1.1,1.7,2.1,2.1c.9.4,2,.4,2.9,0l1.6,3.9c-1,.4-2,.6-3.1.6h0q0-.1,0,0Z"/>
              <path class="cls-69" d="M252.5,39.7c-1,0-2.1-.2-3.1-.6-2-.8-3.5-2.4-4.3-4.4-1.7-4.1.3-8.8,4.4-10.5l1.6,3.9c-1.9.8-2.9,3-2.1,5,.8,1.9,3,2.9,5,2.1l1.6,3.9c-1,.4-2,.6-3,.6h-.1,0Z"/>
              <path class="cls-57" d="M138,182.3c-2.1,0-4.3-.9-5.9-2.5l3.1-2.9c1.4,1.5,3.8,1.6,5.4.2,1.5-1.4,1.6-3.9.2-5.4l3.1-2.9c3,3.2,2.8,8.3-.4,11.3-1.5,1.4-3.5,2.2-5.5,2.2h0Z"/>
            </g>
            <g>
              <path class="cls-15" d="M274.9,171.4c-4.7,0-4.7,7.3,0,7.3s4.7-7.3,0-7.3Z"/>
              <path class="cls-15" d="M545.3,110.6c-4.7,0-4.7,7.3,0,7.3s4.7-7.3,0-7.3Z"/>
              <path class="cls-15" d="M455.6,281.9c-4.7,0-4.7,7.3,0,7.3s4.7-7.3,0-7.3Z"/>
              <path class="cls-15" d="M194.2,84.2c-4.7,0-4.7,7.3,0,7.3s4.7-7.3,0-7.3Z"/>
              <path class="cls-15" d="M359.7,42.6c-2.7,0-2.7,4.2,0,4.2s2.7-4.2,0-4.2Z"/>
              <path class="cls-15" d="M341.4,171.2c-2.7,0-2.7,4.2,0,4.2s2.7-4.2,0-4.2Z"/>
              <path class="cls-15" d="M424.9,154.1c-2.7,0-2.7,4.2,0,4.2s2.7-4.2,0-4.2Z"/>
              <path class="cls-15" d="M444.3,94.7c-2.7,0-2.7,4.2,0,4.2s2.7-4.2,0-4.2Z"/>
              <path class="cls-15" d="M513.1,48.5c-2.7,0-2.7,4.2,0,4.2s2.7-4.2,0-4.2Z"/>
              <path class="cls-15" d="M498.7,216.3c-2.7,0-2.7,4.2,0,4.2s2.7-4.2,0-4.2Z"/>
              <path class="cls-15" d="M419.5,231c-2.7,0-2.7,4.2,0,4.2s2.7-4.2,0-4.2Z"/>
              <path class="cls-15" d="M289.8,297.4c-2.7,0-2.7,4.2,0,4.2s2.7-4.2,0-4.2Z"/>
              <path class="cls-15" d="M198.9,212.8c-2.7,0-2.7,4.2,0,4.2s2.7-4.2,0-4.2Z"/>
              <path class="cls-15" d="M145.6,139c-2.7,0-2.7,4.2,0,4.2s2.7-4.2,0-4.2Z"/>
              <path class="cls-15" d="M280.8,61.3c-2.7,0-2.7,4.2,0,4.2s2.7-4.2,0-4.2Z"/>
              <path class="cls-15" d="M545,180.9c-2.7,0-2.7,4.2,0,4.2s2.7-4.2,0-4.2Z"/>
            </g>
          </g>
          <g id="e7ZfSTxtdFp329">
            <path class="cls-12" d="M202.5,63.2h85.5c.8-15.4-.3-27.6-9.2-27.6s-4.1,13.5-16.6,13.5-2.4-23.6-14.7-23.6-1.8,24.9-17.2,24.9-5.1-14.7-15.1-14.7-12,14.7-12,14.7l-.7,12.9h0q0,0,0-.1Z"/>
            <path class="cls-42" d="M202.5,63.2h85.5c.8-15.4-.3-27.6-9.2-27.6s-4.1,13.5-16.6,13.5-2.4-23.6-14.7-23.6-1.8,24.9-17.2,24.9-5.1-14.7-15.1-14.7-12,14.7-12,14.7l-.7,12.9h0q0,0,0-.1Z"/>
            <g>
              <path class="cls-71" d="M217.4,35.6c0-1.2-.9-2.2-2.1-2.2s-2.2,1-2.3,2.2c0,1.2.9,2.2,2.1,2.2s2.2-1,2.3-2.2Z"/>
              <path class="cls-71" d="M232.5,50.4c0-1.2-.9-2.2-2.1-2.2s-2.2,1-2.3,2.2c0,1.2.9,2.2,2.1,2.2s2.2-1,2.3-2.2Z"/>
              <path class="cls-71" d="M249.7,25.5c0-1.2-.9-2.2-2.1-2.2s-2.2,1-2.3,2.2c0,1.2.9,2.2,2.1,2.2s2.2-1,2.3-2.2Z"/>
              <path class="cls-71" d="M264.4,49.1c0-1.2-.9-2.2-2.1-2.2s-2.2,1-2.3,2.2c0,1.2.9,2.2,2.1,2.2s2.2-1,2.3-2.2Z"/>
              <path class="cls-71" d="M281,35.6c0-1.2-.9-2.2-2.1-2.2s-2.2,1-2.3,2.2c0,1.2.9,2.2,2.1,2.2s2.2-1,2.3-2.2Z"/>
            </g>
            <g>
              <polyline class="cls-41" points="312.1 63.2 202.5 63.2 204.8 19.4"/>
              <polyline class="cls-41" points="200.7 23.3 204.8 19.4 208.5 23.3"/>
              <polyline class="cls-41" points="308.4 59.4 312.1 63.2 308 67.1"/>
            </g>
            <path class="cls-2" d="M314.5,69.8h-114.7c-2.3,0-4.1-1.9-4-4.2l2.6-49c.1-2.1,1.9-3.8,4-3.8h114.7c2.3,0,4.1,1.9,4,4.2l-2.6,49c-.1,2.1-1.9,3.8-4,3.8Z"/>
            <g>
              <path class="cls-54" d="M312.9,21.1c0,1.5-1.4,2.7-2.9,2.7s-2.7-1.2-2.6-2.7c0-1.5,1.4-2.7,2.9-2.7s2.7,1.2,2.6,2.7Z"/>
              <path class="cls-54" d="M312.4,29.7c0,1.5-1.4,2.7-2.9,2.7s-2.7-1.2-2.6-2.7c0-1.5,1.4-2.7,2.9-2.7s2.7,1.2,2.6,2.7Z"/>
              <path class="cls-54" d="M312,38.4c0,1.5-1.4,2.7-2.9,2.7s-2.7-1.2-2.6-2.7c0-1.5,1.4-2.7,2.9-2.7s2.7,1.2,2.6,2.7Z"/>
            </g>
          </g>
          <g id="e7ZfSTxtdFp347">
            <rect class="cls-35" x="450.2" y="220.5" width="104.8" height="67.1"/>
            <rect class="cls-3" x="450.2" y="220.5" width="104.8" height="67.1"/>
            <rect class="cls-68" x="450.2" y="220.5" width="16.3" height="67.1"/>
            <rect class="cls-48" x="450.2" y="220.5" width="104.8" height="5.4"/>
            <g>
              <path class="cls-48" d="M457.6,231.8l-1.7.6,1.7.6v.7l-2.5-.9v-.7l2.5-.9v.6h0Z"/>
              <path class="cls-48" d="M459.4,229.9h.7l-1.7,4.9h-.7l1.7-4.9Z"/>
              <path class="cls-48" d="M462.7,232.1v.7l-2.5.9v-.7l1.7-.6-1.7-.6v-.6l2.5.9h0Z"/>
            </g>
            <g class="cls-55">
              <path d="M462.4,239.3h-7.1c-.4,0-.7-.3-.7-.7s.3-.7.7-.7h7.1c.4,0,.7.3.7.7s-.3.7-.7.7Z"/>
              <path d="M462.4,243.5h-7.1c-.4,0-.7-.3-.7-.7s.3-.7.7-.7h7.1c.4,0,.7.3.7.7s-.3.7-.7.7Z"/>
              <path d="M462.4,247.8h-7.1c-.4,0-.7-.3-.7-.7s.3-.7.7-.7h7.1c.4,0,.7.3.7.7s-.3.7-.7.7Z"/>
              <path d="M462.4,252h-7.1c-.4,0-.7-.3-.7-.7s.3-.7.7-.7h7.1c.4,0,.7.3.7.7s-.3.7-.7.7Z"/>
              <path d="M462.4,256.3h-7.1c-.4,0-.7-.3-.7-.7s.3-.7.7-.7h7.1c.4,0,.7.3.7.7s-.3.7-.7.7Z"/>
              <path d="M462.4,260.6h-7.1c-.4,0-.7-.3-.7-.7s.3-.7.7-.7h7.1c.4,0,.7.3.7.7s-.3.7-.7.7Z"/>
              <path d="M462.4,264.8h-7.1c-.4,0-.7-.3-.7-.7s.3-.7.7-.7h7.1c.4,0,.7.3.7.7s-.3.7-.7.7Z"/>
              <path d="M462.4,269.1h-7.1c-.4,0-.7-.3-.7-.7s.3-.7.7-.7h7.1c.4,0,.7.3.7.7s-.3.7-.7.7Z"/>
              <path d="M462.4,273.3h-7.1c-.4,0-.7-.3-.7-.7s.3-.7.7-.7h7.1c.4,0,.7.3.7.7s-.3.7-.7.7Z"/>
            </g>
            <g>
              <path class="cls-48" d="M482.9,239.3h-14.6c-.4,0-.7-.3-.7-.7s.3-.7.7-.7h14.6c.4,0,.7.3.7.7s-.3.7-.7.7Z"/>
              <path class="cls-38" d="M524.7,239.3h-37.9c-.4,0-.7-.3-.7-.7s.3-.7.7-.7h37.9c.4,0,.7.3.7.7s-.3.7-.7.7Z"/>
              <g class="cls-55">
                <path class="cls-35" d="M542,239.3h-11c-.4,0-.7-.3-.7-.7s.3-.7.7-.7h11c.4,0,.7.3.7.7s-.3.7-.7.7Z"/>
              </g>
              <g class="cls-55">
                <path class="cls-35" d="M508.3,243.5h-38c-.4,0-.7-.3-.7-.7s.3-.7.7-.7h38c.4,0,.7.3.7.7s-.3.7-.7.7Z"/>
              </g>
              <path class="cls-48" d="M547.3,243.5h-35.4c-.4,0-.7-.3-.7-.7s.3-.7.7-.7h35.4c.4,0,.7.3.7.7s-.3.7-.7.7Z"/>
              <path class="cls-38" d="M492.8,247.8h-22.5c-.4,0-.7-.3-.7-.7s.3-.7.7-.7h22.5c.4,0,.7.3.7.7s-.3.7-.7.7Z"/>
              <path class="cls-48" d="M519.7,247.8h-22.2c-.4,0-.7-.3-.7-.7s.3-.7.7-.7h22.2c.4,0,.7.3.7.7s-.3.7-.7.7Z"/>
              <path class="cls-38" d="M547.3,247.8h-24c-.4,0-.7-.3-.7-.7s.3-.7.7-.7h24c.4,0,.7.3.7.7s-.3.7-.7.7Z"/>
              <path class="cls-38" d="M494.9,252h-13.5c-.4,0-.7-.3-.7-.7s.3-.7.7-.7h13.5c.4,0,.7.3.7.7s-.3.7-.7.7Z"/>
              <path class="cls-38" d="M514.1,252h-14.8c-.4,0-.7-.3-.7-.7s.3-.7.7-.7h14.8c.4,0,.7.3.7.7s-.3.7-.7.7Z"/>
              <g class="cls-55">
                <path class="cls-35" d="M541.4,252h-23.9c-.4,0-.7-.3-.7-.7s.3-.7.7-.7h23.9c.4,0,.7.3.7.7s-.3.7-.7.7Z"/>
              </g>
              <g class="cls-55">
                <path class="cls-35" d="M488.5,256.3h-18.2c-.4,0-.7-.3-.7-.7s.3-.7.7-.7h18.2c.4,0,.7.3.7.7s-.3.7-.7.7Z"/>
              </g>
              <path class="cls-48" d="M490.8,260.6h-20.5c-.4,0-.7-.3-.7-.7s.3-.7.7-.7h20.5c.4,0,.7.3.7.7s-.3.7-.7.7Z"/>
              <path class="cls-38" d="M525,260.6h-30.8c-.4,0-.7-.3-.7-.7s.3-.7.7-.7h30.8c.4,0,.7.3.7.7s-.3.7-.7.7Z"/>
              <path class="cls-38" d="M547.3,260.6h-18.5c-.4,0-.7-.3-.7-.7s.3-.7.7-.7h18.5c.4,0,.7.3.7.7s-.3.7-.7.7Z"/>
              <g class="cls-55">
                <path class="cls-35" d="M488.5,264.8h-11.7c-.4,0-.7-.3-.7-.7s.3-.7.7-.7h11.7c.4,0,.7.3.7.7s-.3.7-.7.7Z"/>
              </g>
              <g class="cls-55">
                <path class="cls-35" d="M515,264.8h-22.5c-.4,0-.7-.3-.7-.7s.3-.7.7-.7h22.5c.4,0,.7.3.7.7s-.3.7-.7.7Z"/>
              </g>
              <path class="cls-38" d="M541.4,264.8h-22c-.4,0-.7-.3-.7-.7s.3-.7.7-.7h22c.4,0,.7.3.7.7s-.3.7-.7.7Z"/>
              <path class="cls-38" d="M497.2,269.1h-13.8c-.4,0-.7-.3-.7-.7s.3-.7.7-.7h13.8c.4,0,.7.3.7.7s-.3.7-.7.7Z"/>
              <g class="cls-55">
                <path class="cls-35" d="M513.2,269.1h-13.2c-.4,0-.7-.3-.7-.7s.3-.7.7-.7h13.2c.4,0,.7.3.7.7s-.3.7-.7.7Z"/>
              </g>
              <path class="cls-48" d="M541.4,269.1h-24.1c-.4,0-.7-.3-.7-.7s.3-.7.7-.7h24.1c.4,0,.7.3.7.7s-.3.7-.7.7Z"/>
              <g class="cls-55">
                <path class="cls-35" d="M500.2,273.3h-16.9c-.4,0-.7-.3-.7-.7s.3-.7.7-.7h16.9c.4,0,.7.3.7.7s-.3.7-.7.7Z"/>
              </g>
            </g>
            <g>
              <path class="cls-11" d="M550.4,223.2c0,.6.5,1.1,1.1,1.1s1.1-.5,1.1-1.1-.5-1.1-1.1-1.1-1.1.5-1.1,1.1Z"/>
              <circle class="cls-11" cx="547.6" cy="223.2" r="1.1"/>
              <circle class="cls-11" cx="543.6" cy="223.2" r="1.1"/>
            </g>
          </g>
          <g id="e7ZfSTxtdFp401">
            <g>
              <polygon class="cls-19" points="199.5 102 199.5 132.7 210 144.1 199.5 144.1 199.5 199 199.5 199 98.5 199 98.5 102 199.5 102"/>
              <rect class="cls-70" x="98.5" y="102" width="100.9" height="7.3"/>
              <polygon class="cls-51" points="199.4 183.7 199.4 199.1 194.1 199.1 180.9 199.1 98.5 199.1 98.5 183.7 199.4 183.7"/>
              <path class="cls-15" d="M185.2,106c0,.7.6,1.4,1.4,1.4s1.4-.6,1.4-1.4-.6-1.4-1.4-1.4-1.4.6-1.4,1.4Z"/>
              <path class="cls-15" d="M193.4,106c0,.7.6,1.4,1.4,1.4s1.4-.6,1.4-1.4-.6-1.4-1.4-1.4-1.4.6-1.4,1.4Z"/>
              <path class="cls-15" d="M189.3,106c0,.7.6,1.4,1.4,1.4s1.4-.6,1.4-1.4-.6-1.4-1.4-1.4-1.4.6-1.4,1.4Z"/>
              <path class="cls-51" d="M108.3,126.3h0c3.5,0,6.4-2.9,6.4-6.4h0c0-3.5-2.9-6.4-6.4-6.4h0c-3.5,0-6.4,2.9-6.4,6.4h0c0,3.5,2.9,6.4,6.4,6.4Z"/>
              <path class="cls-35" d="M108.5,119.9c-.4,0-.7-.5-.7-1s.5-1,1-1,1,.5,1,1-.3.8-.7,1c.8,0,1.5.9,1.5,1.8h-3.6c0-.9.6-1.6,1.4-1.7h.1q0,0,0-.1Z"/>
              <path class="cls-35" d="M106.5,120.2s0,0,0,0v-1.6s0,0,0,0,0,0,0,0v1.6s0,0,0,0Z"/>
              <path class="cls-35" d="M105.7,119.4h1.6s0,0,0,0,0,0,0,0h-1.6s0,0,0,0,0,0,0,0Z"/>
              <circle class="cls-13" cx="131" cy="191" r="4.8"/>
              <path class="cls-15" d="M131.5,192.2h0c-.7,0-1.2-.5-1.2-1.2h0c0-.7.5-1.2,1.2-1.2h0c.7,0,1.2.5,1.2,1.2h0c0,.7-.5,1.2-1.2,1.2Z"/>
              <path class="cls-15" d="M130.1,191.5v-.8l-.6-.6h-.2v1.8c0,.1.1.2.2,0l.6-.6v.2h0Z"/>
              <path class="cls-13" d="M148.8,194.4c1.8-1.8,1.8-4.8,0-6.7s-4.8-1.8-6.7,0c-1.8,1.8-1.8,4.8,0,6.7,1.8,1.8,4.8,1.8,6.7,0Z"/>
              <path class="cls-15" d="M147.5,191.8l-.8-.2c-.1,0-.2-.1-.2-.2v-.2s0-.3-.2-.3h-1.5s-.3,0-.3.3v.3s0,.2-.1.2l-.9.3s-.2,0-.2-.1v-.3c-.1,0-.1-.1-.1-.2s0-.3.2-.4c.2-.2,1-.8,2.7-.7,1.6,0,1.9.7,2,.9v.6c0,.1-.2.2-.3.1h-.3q0-.1,0-.1Z"/>
              <circle class="cls-13" cx="159.9" cy="191" r="4.8"/>
              <path class="cls-15" d="M161.4,191.5c.3,0,.5-.2.5-.5s-.2-.5-.5-.5-.5.2-.5.5.2.5.5.5Z"/>
              <path class="cls-15" d="M159.9,191.5c.3,0,.5-.2.5-.5s-.2-.5-.5-.5-.5.2-.5.5.2.5.5.5Z"/>
              <circle class="cls-15" cx="158.3" cy="191" r=".5"/>
              <path class="cls-48" d="M187.6,120.3c0,1.7,1.4,3.1,3.1,3.1s3.1-1.4,3.1-3.1-1.4-3.1-3.1-3.1-3.1,1.4-3.1,3.1Z"/>
            </g>
            <g>
              <path class="cls-15" d="M128.8,152s2.8.3,6.2.4,6.2.2,6.2.1c0,0-2.8-.3-6.2-.4s-6.2-.2-6.2-.1Z"/>
              <g>
                <g>
                  <path class="cls-38" d="M159.1,129.8c-.5-3-1.3-6-3.1-8.5-1.8-2.4-5.1-4-8-3l-3.5,2.1c.7,8.2,2.4,16.4,5,24.2.3.8.5,1.6,1.1,2.1,1.1,1.2,3,1.1,4.6.9,2-.2,4.2-.7,5.1-2.5.4-.9.4-1.9.3-2.8-.3-4.2-.8-8.4-1.5-12.6h0q0,.1,0,.1Z"/>
                  <path class="cls-56" d="M139.2,124.5l10.9-3.6c3.5-.6,6.2,3.6,6.7,7.1.5,3.9,1,8.8.8,11.8-.5,6-5,7.1-5,7.1,0,0,.5,1.9.4,4.5-.3,4.1-2.9,5.2-5.1,5.3h0c-3.4.4-7-.7-7.4-4.1l-3-25.9c-.1-1.1.6-2.1,1.7-2.3h0q0,.1,0,0Z"/>
                  <path class="cls-35" d="M155.3,132.7c0,.4-.3.8-.7.8s-.8-.2-.8-.6.3-.8.7-.8.8.2.8.6Z"/>
                  <path class="cls-35" d="M155.6,131.2c0,.1-.7-.3-1.5-.2-.8,0-1.4.5-1.5.4,0,0,0-.2.3-.4.2-.2.7-.4,1.2-.5.5,0,1,.1,1.2.3.3.2.4.3.3.4Z"/>
                  <path class="cls-35" d="M147.8,133.7c0,.4-.3.8-.7.8s-.8-.2-.8-.6.3-.8.7-.8.8.2.8.6Z"/>
                  <path class="cls-35" d="M147.4,132c0,.1-.7-.3-1.5-.2-.8,0-1.4.5-1.5.4,0,0,0-.2.3-.4.2-.2.7-.4,1.2-.5.5,0,1,.1,1.2.3.3.2.4.3.3.4Z"/>
                  <path class="cls-35" d="M151,137.3s.5-.2,1.3-.3c.2,0,.4,0,.4-.2s0-.4-.2-.6c-.2-.5-.5-1-.7-1.6-1-2.2-1.8-4-1.7-4.1,0,0,1,1.7,2,3.9.2.5.5,1.1.7,1.6,0,.2.3.5.2.8,0,.2-.2.3-.3.3h-.4c-.8.1-1.3.1-1.4.1h.1q0,.1,0,.1Z"/>
                  <path class="cls-72" d="M152.6,147s-4.3.6-8.5-1.5c0,0,2.7,4,8.6,3v-1.5h-.1Z"/>
                  <path class="cls-38" d="M147.8,129.5c0,.2-.9.2-1.8.4-1,.2-1.7.5-1.9.3,0,0,0-.3.4-.6.3-.2.8-.5,1.4-.6s1.1,0,1.5,0c.4.1.6.3.5.4h-.1q0,.1,0,.1Z"/>
                  <path class="cls-38" d="M155.7,128.7c-.2.2-.9,0-1.7.1-.8,0-1.5.2-1.7,0,0,0,0-.3.3-.5s.8-.4,1.4-.4,1.1.1,1.4.3.4.4.4.5h-.1,0Z"/>
                  <path class="cls-38" d="M151.8,120.4c0-.3-.4-.6-.7-.8-1.9-1.3-4.3-1.5-6.6-1-2.2.5-4.2,1.7-6,3.1-1.5,1.2-3,2.7-3.7,4.6-.5,1.3-.6,2.7-.7,4.1-.2,3.5-.9,7-.6,10.4.1,1.3,0,3.6.4,5.3.4,1.8,2.2,3.8,4,4.1h2.3s-1-7.1-1-9.8v-7.3c.2-.1.8,0,.9-.2.8-.5,1.2-1.7,2-2.2s1.5-.9,2.2-1.5c.8-.6,1.5-1.3,2.2-2l3-3c.6-.6,1.3-1.2,1.7-2s.8-1.2.5-2v.2h.1ZM139.1,133.3c0,.6,0,.2,0,0h0Z"/>
                  <path class="cls-56" d="M139.5,134.9c-.2-1.3-1.6-2-2.6-1.3-.6.4-1,1.1-.8,2.5.4,3.6,3.9,2.4,3.9,2.3,0,0-.2-2-.4-3.5h-.1,0Z"/>
                  <path class="cls-72" d="M138.7,137.1h-.2c0,.1-.3.2-.5.1-.4,0-.8-.7-.9-1.3v-.9c0-.3.2-.5.4-.5s.3,0,.4.1v.2-.2s0-.1-.2-.2h-.4c-.3,0-.5.3-.6.6s-.2.7-.1,1c.1.7.5,1.4,1.1,1.4s.5,0,.6-.2c.1-.1.1-.2,0-.2h.4q0,.1,0,0Z"/>
                  <path class="cls-35" d="M137.6,138.8c0,.4.4.7.8.7s.7-.4.7-.8-.4-.7-.8-.7-.7.4-.7.8Z"/>
                  <path class="cls-72" d="M148.8,139c-.3.4-.3,1-.2,1.5.2.5.6.9,1.1,1h.6c.3-.2.5-.5.6-.9,0-.3.2-.6.3-.9v-.3s-.2-.1-.3-.1c-.7-.1-1.4-.2-2.2-.4"/>
                  <path class="cls-38" d="M142.7,124.6c-2.2,1.6-4.2,3.7-5.6,6l1.9,3.3c3.3-.3,3.7-.6,6-3s6.9-7,7.2-10.3c-3.1.9-6.8,2.2-9.5,4h0Z"/>
                </g>
                <path class="cls-40" d="M169,164.8s-.6-5.2-3.1-7.7c-2.5-2.6-12.9-5.8-12.9-5.8,0,0-.4,3.7-2.9,4.6-2.6.9-5.6.6-7.6-1.7-1.9-2.2-2.4-5-2.4-5,0,0-12.4,1.1-14.5,4.6-2,3.4-4.6,16.6-4.6,16.6l11.6,2.5-.7,10.7,28.5.2.9-9.5,8.4,1.2-.7-10.6h0Z"/>
              </g>
              <g>
                <path class="cls-56" d="M161.3,174.2l4,.5,3.7-9.7,6.1,2.5s-3.4,11.6-4.7,16.2h-12.3l3.3-9.5h-.1Z"/>
                <path class="cls-56" d="M169,165s0-4.2.3-5.4l3-6.7s.8-.5,1.1.9c.4,1.3-.8,2.7-.8,2.7v1.7l1.1-1,2.3-4.4s1.6-3.2,2-2.7.3,1.5-.4,2.9-1.6,3.1-1.6,3.1c0,0-.2.6.6-.2s2.6-4.7,3-5.2.9-1.9,1.7-1.6-.2,2-.2,2l-2.6,5.8s1.5-2.2,1.8-2.5.9-1.6,1.4-2.3c.5-.6,1-.9,1.4-.7.6.3.4.9.4.9l-2.7,4.8s-1.4,2.1-1.4,2.3,1.2-.7,1.2-.7l1.2-1.5s1.2-2.2,1.9-2.1.5.6.5.6l-2.3,4-3.4,4.3-3.6,3.6-2.1-.7-3.9-1.9h.1Z"/>
              </g>
              <path class="cls-56" d="M133.8,173l2.2,10.6h-10.4c-.4-1.5-2.6-12.9-2.6-12.9l10.7,2.3h.1Z"/>
            </g>
          </g>
          <g id="e7ZfSTxtdFp478">
            <path class="cls-58" d="M215,264l-51.5-5.7c-3.6-.4-6.6,2.6-6.6,6.1v118.6c0,3.6,3,6.5,6.6,6.1l51.5-5.6c3-.3,5.5-3.2,5.5-6.4v-106.8c0-3.2-2.4-6.1-5.5-6.4h0ZM218.2,376.4c0,1.7-1.3,3.3-3,3.5l-52.1,5c-2,.2-2.1-1.2-2.1-3.1v-116.9c0-2.1.3-3.7,2.5-3.5l51.3,5.1c1.8.2,3.3,1.9,3.3,3.9v106.2-.2q.1,0,0,0Z"/>
            <path class="cls-49" d="M221.1,269h0c0-1.3-1-2.3-2.1-2.5h0l-53.8-5.3h-.1c-1.3,0-2.4.9-2.5,2.2h0v119.6c0,1.2,1,2.1,2.3,2l17.1-1.7h.2l12.7-1.2h.2l12.4-1.2h.1l11.4-1.1c1.1-.1,1.9-1.1,1.9-2.2v-108.5h.2q0-.1,0,0ZM162.6,269.8v-3.6l3.8.3c.1,0,.2,0,.4.1h.4l2,.2c.1,0,.2,0,.4.1h.4l2,.2c.1,0,.2,0,.4.1h.4l38.8,3.5h0l5.9.6h0l3.9.3v3.3l-58.5-5h-.3q0-.1,0-.1Z"/>
            <path class="cls-47" d="M215.8,380.1h-.1v.2h.1v-.2Z"/>
            <path class="cls-50" d="M218.9,266.5l-53.7-5.3c-1.5-.1-2.7.9-2.7,2.4v6.3h0l58.5,5h0v-5.7c0-1.3-1-2.5-2.2-2.6h.1q0-.1,0,0Z"/>
            <path class="cls-15" d="M167.7,265.9c0,.3-.2.6-.5.7h-.4c-.1,0-.2,0-.4-.1-.3-.2-.5-.5-.5-.8s.4-.8.9-.8.9.5.9.9h0q0,.1,0,0Z"/>
            <path class="cls-15" d="M170.4,266.1c0,.3-.2.6-.5.7h-.4c-.1,0-.2,0-.4-.1-.3-.2-.5-.5-.5-.8s.4-.8.9-.8.9.5.9.9h0q0,.1,0,0Z"/>
            <path class="cls-15" d="M173,266.4c0,.3-.2.6-.5.7h-.4c-.1,0-.2,0-.4-.1-.3-.2-.5-.5-.5-.8s.4-.8.9-.8.9.5.9.9h0q0,.1,0,0Z"/>
            <g>
              <path class="cls-15" d="M211,269v2.2l5.9.2v-.7h.3v-1h-.3v-.6l-5.9-.2h0ZM216.8,271.3l-5.5-.2v-1.9l5.5.2v1.9Z"/>
              <polygon class="cls-15" points="211.6 270.8 212.2 270.8 212.2 269.5 211.6 269.5 211.6 270.8"/>
              <polygon class="cls-15" points="212.5 270.8 213.1 270.8 213.1 269.6 212.5 269.5 212.5 270.8"/>
              <polygon class="cls-15" points="213.6 270.8 214.1 270.9 214.1 269.6 213.6 269.6 213.6 270.8"/>
            </g>
            <polygon class="cls-58" points="157.6 288.4 156.2 288.4 156.2 277.2 157.6 277.3 157.6 288.4"/>
            <polygon class="cls-58" points="157.6 301.8 156.2 301.8 156.2 290.7 157.6 290.7 157.6 301.8"/>
            <path class="cls-58" d="M159.8,264.5v118.6c0,3.6,3,6.1,6.6,5.8l13-1.3h.4l37.3-3.9h.7c3-.3,5.5-3.2,5.5-6.4v-106.8c0-3.2-2.4-6.1-5.5-6.4l-51.5-5.3c-3.6-.4-6.6,2.2-6.6,5.8h.1ZM162.5,264.8c0-2.1,1.8-3.7,4-3.5l51.3,5.1c1.8.2,3.3,1.9,3.3,3.9v106.2c0,1.7-1.3,3.3-3,3.5h-1c0,.1-1.1.1-1.1.1,0,.1-.2.1-.2.1h0q0,.1-.1.1h0c0-.1-41.4,3.9-41.4,3.9h-.8l-5.7.6-1.7.2c-2,.2-3.6-1.2-3.6-3.1v-117.1h0Z"/>
            <polygon class="cls-47" points="215.9 380.3 215.8 380.1 215.6 380.1 215.6 380.3 215.9 380.3"/>
            <polygon class="cls-58" points="217.4 379.9 174.3 384.1 174.3 388.1 218.2 383.5 217.4 379.9"/>
          </g>
          <g id="e7ZfSTxtdFp496">
            <g>
              <path class="cls-64" d="M207,324l.7-2.6s5.7,1.5,11.5-1l1.1,2.4c-6.6,2.9-13,1.2-13.2,1.1h-.1Z"/>
              <path class="cls-60" d="M236.8,311.1c-.3.4-.9.5-1.3.1-.4-.3-.5-.9-.1-1.3l2.1-2.6c.3-.4.9-.5,1.3-.1.4.3.5.9.1,1.3l-2.1,2.6Z"/>
              <path class="cls-60" d="M236.2,307.9c-.4.5-1.1.6-1.6.3-.5-.4-.6-1.1-.3-1.6l2.4-3.4c.4-.5,1.1-.6,1.6-.3.5.4.6,1.1.3,1.6l-2.4,3.4Z"/>
              <path class="cls-60" d="M232.3,306.5c-.6-.3-.8-1-.4-1.6l2-3.6c.3-.6,1-.8,1.6-.4.6.3.8,1,.4,1.6l-2,3.6c-.3.6-1,.8-1.6.4Z"/>
              <path class="cls-60" d="M228.6,306.9c-.6-.3-.8-1-.4-1.6l2-3.6c.3-.6,1-.8,1.6-.4.6.3.8,1,.4,1.6l-2,3.6c-.3.6-1,.8-1.6.4Z"/>
              <path class="cls-60" d="M226.5,310.1c-.7.2-1.4-.3-1.6-1l-1-4.7c-.2-.7.3-1.4,1-1.6s1.4.3,1.6,1l1,4.7c.2.7-.3,1.4-1,1.6Z"/>
              <path class="cls-67" d="M220.3,324.7s-2.8-4.9-1.6-6.8,6.4-9.1,7.1-10.6,5.3-3.3,8.6-.9c3.3,2.3,3.7,4.3-1.1,9.9s-12.4,9.7-13.1,8.5h.1Z"/>
              <path class="cls-33" d="M233.5,316.3c2.7-3.2,3.8-5.3,3.6-6.9-.1-1.1-.9-2.1-2.5-3.2-.2-.1-.3-.2-.5-.3-1.5-.8-3.3-1-5.2-.6-1.5.4-2.7,1.1-3.1,1.9-.4.7-1.9,2.9-3.1,4.8-.4.6-.9,1.3-1.3,1.9-1.1,1.7-2.2,3.2-2.7,4-1.2,1.9,1.4,6.7,1.6,6.9,0,.1.2.2.5.3,1.9.2,8.6-3.8,12.8-8.7h-.1q0-.1,0,0ZM233.3,316.1c-4.4,5.2-11,8.8-12.6,8.6h-.2s-2.7-4.9-1.6-6.7c.5-.7,1.5-2.3,2.7-4,.4-.6.9-1.3,1.3-1.9,1.3-2,2.8-4,3.1-4.8.3-.7,1.6-1.4,3-1.8,2-.5,4-.2,5.5.9,1.6,1.1,2.3,2,2.4,3,.2,1.5-.9,3.5-3.5,6.7h-.1,0Z"/>
              <path class="cls-33" d="M230.7,312c-1.2-1.6-3.3-2.4-6.2-2.4v-.2c1.9,0,3.5.4,4.7,1,.7.4,1.3.9,1.7,1.5,1.9,2.5,1.1,6.1,1,6.1h-.2s.9-3.6-1-6Z"/>
            </g>
            <polygon class="cls-59" points="189.9 312.2 182.9 312.2 182.9 314.8 189.9 314.8 190.1 314.8 197.2 314.8 197.2 312.2 190.1 312.2 189.9 312.2"/>
            <path class="cls-64" d="M178.7,344c0,1.1.5,2.1,1.3,2.2h7.6c.7-.2,1.3-1.1,1.3-2.2v-3.8h-10.1v3.8h-.1Z"/>
            <path class="cls-60" d="M191.2,344c0,1.1.5,2.1,1.3,2.2h7.6c.7-.2,1.3-1.1,1.3-2.2v-3.8h-10.1v3.8h-.1Z"/>
            <path class="cls-53" d="M203.5,318.5v-1c-.5-1.5-1.9-2.6-3.5-2.6h-19.9c-1.6,0-3,1.1-3.4,2.6v1c-.1,0-2,17.3-2,17.3v.9h0c0,1.9,1.6,3.4,3.5,3.4h23.8c1.9,0,3.5-1.5,3.5-3.4h0v-.9l-1.9-17.3h-.1Z"/>
            <g>
              <path class="cls-64" d="M180.8,317.9c-.2-.8-1-1.2-1.8-.9-2.2.8-6.4,2.8-9.6,7l2.1,1.6c2.8-3.7,6.5-5.4,8.4-6.1.6-.2,1-.9.8-1.6h.1Z"/>
              <path class="cls-60" d="M161.7,341.5c-.5,0-1,.2-1.1.7l-.6,3.2c0,.5.2,1,.7,1.1.5,0,1-.2,1.1-.7l.6-3.2c0-.5-.2-1-.7-1.1Z"/>
              <path class="cls-60" d="M164,343.7c-.6,0-1.2.4-1.3,1l-.5,4.1c0,.6.4,1.2,1,1.3.6,0,1.2-.4,1.3-1l.5-4.1c0-.6-.4-1.2-1-1.3Z"/>
              <path class="cls-60" d="M166.9,344c-.6,0-1.2.5-1.2,1.2v4.1c0,.6.5,1.2,1.2,1.2s1.2-.5,1.2-1.2v-4.1c0-.6-.5-1.2-1.2-1.2Z"/>
              <path class="cls-60" d="M169.9,341.9c-.6,0-1.2.5-1.2,1.2v4.1c0,.6.5,1.2,1.2,1.2s1.2-.5,1.2-1.2v-4.1c0-.6-.5-1.2-1.2-1.2Z"/>
              <path class="cls-60" d="M172,338.2c-.5-.6-1.3-.6-1.9-.1s-.6,1.3-.1,1.9l3.2,3.6c.5.6,1.3.6,1.9.1s.6-1.3.1-1.9l-3.2-3.6Z"/>
              <path class="cls-67" d="M168.5,322.4c-1.1-.8-5.9,6.5-7.3,13.7s-.2,8.8,3.9,9.2c4,.4,7.1-3.4,7.1-5s.9-10.5,1-12.7-4.7-5.2-4.7-5.2Z"/>
            </g>
            <rect class="cls-64" x="181.6" y="346.2" width="4.6" height="8.8"/>
            <rect class="cls-64" x="200.3" y="346.2" width="4.6" height="8.8"/>
            <polygon class="cls-60" points="196.4 312.2 189.3 312.2 189.3 314.8 196.4 314.8 196.6 314.8 203.6 314.8 203.6 312.2 196.6 312.2 196.4 312.2"/>
            <path class="cls-60" d="M185.1,344c0,1.1.5,2.1,1.3,2.2h7.6c.7-.2,1.3-1.1,1.3-2.2v-3.8h-10.1v3.8h-.1Z"/>
            <path class="cls-67" d="M190,365.6v-7c0-3.3-3.1-5.8-6.3-5.1-1.9.4-3.6,1.4-3.9,3.3-.8,4.8-1.1,14.8-1.1,14.8h16.3s.2-4.5-4.9-6h-.1Z"/>
            <rect class="cls-64" x="178.2" y="371.6" width="17.4" height="1.4"/>
            <path class="cls-60" d="M197.7,344c0,1.1.5,2.1,1.3,2.2h7.6c.7-.2,1.3-1.1,1.3-2.2v-3.8h-10.1v3.8h-.1Z"/>
            <path class="cls-67" d="M209.9,318.5v-1c-.5-1.5-1.9-2.6-3.5-2.6h-19.9c-1.6,0-3,1.1-3.4,2.6v1c-.1,0-2,17.3-2,17.3v.9h0c0,1.9,1.6,3.4,3.5,3.4h23.8c1.9,0,3.5-1.5,3.5-3.4h0v-.9l-1.9-17.3h-.1Z"/>
            <path class="cls-67" d="M208.8,365.6v-7c0-3.3-3.1-5.8-6.3-5.1-1.9.4-3.6,1.4-3.9,3.3-.8,4.8-1.1,14.8-1.1,14.8h16.3s.2-4.5-4.9-6h-.1Z"/>
            <rect class="cls-64" x="197" y="371.6" width="17.4" height="1.4"/>
            <g>
              <rect class="cls-59" x="212.6" y="286.8" width=".7" height="9.7"/>
              <path class="cls-60" d="M216.2,300.3c-.5,0-.9.4-.9.9s.4.9.9.9.9-.4.9-.9-.4-.9-.9-.9Z"/>
              <rect class="cls-59" x="215" y="299.1" width="1.2" height="4.2"/>
              <path class="cls-60" d="M213.3,295.3h-3v11.8h3c.9,0,1.6-.6,1.7-1.5v-8.9c-.1-.8-.8-1.5-1.7-1.5h0Z"/>
              <circle class="cls-60" cx="212.9" cy="286.7" r="1.7"/>
            </g>
            <path class="cls-53" d="M203.5,286.5c-1.6-1-11.5-.9-12.5-.9s-10.9,0-12.5.9c-1.7,1-3.7,13-3.9,15.8s.1,10.3,16.3,11.1h0c16.2-.8,16.6-8.2,16.3-11.1-.2-2.8-2.3-14.8-3.9-15.8h.2,0Z"/>
            <path class="cls-67" d="M208.4,286.5c-1.6-1-11.5-.9-12.5-.9s-10.9,0-12.5.9c-1.7,1-3.7,13-3.9,15.8s-2.4,10.4,13.8,11.2h3.8c16.2-.8,15.5-8.4,15.2-11.2-.2-2.8-2.3-14.8-3.9-15.8h0Z"/>
            <g>
              <rect class="cls-59" x="175.1" y="287.7" width=".3" height="7.7"/>
              <g>
                <path class="cls-59" d="M176.5,295.3h-2.1c-.8,0-1.5.6-1.7,1.4v9.1c.2.8.9,1.4,1.7,1.4h2.1c.5,0,.8-.4.8-.8v-10.1c0-.5-.4-.8-.8-.8v-.2h0Z"/>
                <rect class="cls-59" x="175.4" y="286.8" width=".7" height="9.7"/>
                <path class="cls-60" d="M172,300.3c-.5,0-.9.4-.9.9s.4.9.9.9.9-.4.9-.9-.4-.9-.9-.9Z"/>
                <rect class="cls-59" x="172" y="299.1" width="1.2" height="4.2"/>
                <path class="cls-60" d="M177.4,295.3h-2.1c-.8,0-1.5.6-1.7,1.4v9.1c.2.8.9,1.4,1.7,1.4h2.1c.5,0,.8-.4.8-.8v-10.1c0-.5-.4-.8-.8-.8v-.2h0Z"/>
                <circle class="cls-60" cx="175.7" cy="286.7" r="1.7"/>
              </g>
            </g>
            <path class="cls-60" d="M205.3,289.7c-1.2-.7-8.5-.7-9.4-.7s-8.2,0-9.4.7c-1.3.8-2.8,9.8-3,11.9s.1,7.7,12.3,8.3h0c12.2-.6,12.4-6.2,12.3-8.3-.2-2.1-1.7-11.1-3-11.9h.2,0Z"/>
            <circle class="cls-15" cx="189" cy="299.5" r="1.9"/>
            <path class="cls-15" d="M202.8,297.6c-1.1,0-1.9.9-1.9,1.9s.9,1.9,1.9,1.9,1.9-.9,1.9-1.9-.9-1.9-1.9-1.9Z"/>
            <path class="cls-15" d="M192.7,303.1c1.8,3.3,5.3,3.2,7-.3h-7.2v.3h.2Z"/>
            <path class="cls-53" d="M202.5,320.6h0c-.2-1.3-1-2.1-2-2.1h-8.7c-.9,0-1.8.8-2,2.1l-.9,12.1h0c0,1.5.9,2.6,2,2.6h10.4c1.1,0,2-1.2,2-2.6h0l-.9-11.5v-.6h.1,0ZM201.3,334.3h-10.4c-.5,0-1-.7-1-1.6l.9-11.4v-.6c.2-.7.6-1.2,1-1.2h8.7c.4,0,.9.5,1,1.2l.9,12c0,.9-.5,1.6-1,1.6h-.1,0Z"/>
            <path class="cls-33" d="M190.1,365.5v-6.9c0-1.6-.7-3.2-2-4.2s-2.9-1.4-4.5-1c-2.4.5-3.7,1.7-4,3.3-.8,4.7-1.1,14.7-1.1,14.8h0c0,.1,16.5.1,16.5.1h0c0-.1.1-4.7-4.9-6.2h0ZM194.9,371.5h-16.1c0-1.1.3-10.2,1.1-14.7.3-1.6,1.6-2.7,3.9-3.2,1.5-.3,3.1,0,4.3,1s1.9,2.4,1.9,4v7h0c2.6.8,3.8,2.3,4.3,3.5.5,1.1.5,2,.5,2.3h.1Z"/>
            <path class="cls-33" d="M178.6,371.5h.2c3.8-4.9,11.2-5.8,11.3-5.8v-.2c-.1,0-7.6,1-11.5,6.1h0Z"/>
            <path class="cls-33" d="M208.9,365.5v-6.9c0-1.6-.7-3.2-2-4.2s-2.9-1.4-4.5-1c-2.4.5-3.7,1.7-4,3.3-.8,4.7-1.1,14.7-1.1,14.8h0c0,.1,16.5.1,16.5.1h0c0-.1.1-4.7-4.9-6.2h0ZM213.6,371.5h-16.1c0-1.1.3-10.2,1.1-14.7.3-1.6,1.6-2.7,3.9-3.2,1.5-.3,3.1,0,4.3,1s1.9,2.4,1.9,4v7h0c2.6.8,3.8,2.3,4.3,3.5.5,1.1.5,2,.5,2.3h.1Z"/>
            <path class="cls-33" d="M197.3,371.5h.2c3.8-4.9,11.2-5.8,11.3-5.8v-.2c-.1,0-7.6,1-11.5,6.1h0Z"/>
            <path class="cls-33" d="M207.7,343.7c0,2.2-1.1,2.4-1.2,2.4h-26.6v.2h26.7s1.3-.2,1.3-2.6v-3.6h-.2v3.6Z"/>
            <rect class="cls-33" x="193.1" y="324.6" width=".2" height="31.1" transform="translate(-147.6 532.2) rotate(-89.8)"/>
            <rect class="cls-33" x="174.2" y="327.2" width="15.8" height=".2" transform="translate(-162.8 473.6) rotate(-83.9)"/>
            <rect class="cls-33" x="206" y="335.4" width="2.3" height=".2" transform="translate(-186.1 308) rotate(-54.3)"/>
            <rect class="cls-33" x="207.3" y="336.5" width="2.3" height=".2" transform="translate(-186.5 309.4) rotate(-54.3)"/>
            <path class="cls-33" d="M168.5,322.3h-.5c-1.7.7-5.7,7.5-6.9,13.8-.8,4.1-.7,6.4.2,7.7.7.9,1.8,1.4,3.7,1.6h.6c1.7,0,3.4-.7,4.8-2,1.1-1,1.8-2.3,1.8-3.1s.2-3.5.4-5.7c0-.8.1-1.5.2-2.3.2-2,.4-3.9.4-4.8.1-2.3-4.5-5.1-4.7-5.3h0q0,.1,0,0ZM173,327.5c0,.9-.2,2.8-.4,4.7,0,.8-.1,1.5-.2,2.3-.2,2.4-.4,4.9-.4,5.7s-.7,2-1.7,3c-1.5,1.4-3.4,2.1-5.2,1.9-1.9-.2-3-.6-3.6-1.5-.9-1.2-1-3.5-.2-7.6,1.3-6.7,5.3-13,6.8-13.7h.3s4.7,2.9,4.6,5.1h0q0,.1,0,.1Z"/>
            <path class="cls-33" d="M165.6,338.5c-2.8-1.2-3.8-4.7-3.8-4.7h-.2s1,3.6,3.9,4.9c.7.3,1.4.4,2.2.4,1.4,0,2.9-.5,4.6-1.4v-.2c-2.6,1.4-4.9,1.7-6.7.9h0Z"/>
            <path class="cls-33" d="M212.4,302.3c-.2-2.7-2.2-14.8-4-15.9-1.6-1-11.4-.9-12.5-.9s-10.9,0-12.5.9c-1.7,1.1-3.8,13.1-4,15.9v.7c-.2,1.7-.5,4.3,1.4,6.5,2.1,2.4,6.3,3.8,12.6,4.1h3.8c6.6-.3,11.2-1.8,13.5-4.5,2.1-2.4,1.9-5.2,1.8-6.8h-.1ZM210.5,309c-2.3,2.6-6.8,4.1-13.4,4.4h-3.8c-6.2-.3-10.4-1.7-12.5-4-1.8-2.2-1.6-4.7-1.4-6.4v-.7c.2-2.9,2.3-14.8,3.9-15.7,1.3-.8,8.1-.9,11.1-.9s1.1,0,1.3,0c1.1,0,10.9,0,12.5.9,1.6,1,3.7,12.8,3.9,15.7h0c.1,1.6.3,4.3-1.8,6.7h.2Z"/>
            <path class="cls-33" d="M178.3,296c0-.7-.9-.8-.9-.8h-2.4v.2h2.4s.7,0,.8.6v9.8h.2v-9.8h-.1Z"/>
            <path class="cls-33" d="M213.5,295.3h-2.2v.2h2.2c.1,0,1.2.3,1.5,1.2h.2c-.3-1.1-1.6-1.4-1.6-1.4h-.1,0Z"/>
            <rect class="cls-33" x="214.9" y="296.9" width=".2" height="8.3" transform="translate(-3.1 2.3) rotate(-.6)"/>
            <path class="cls-33" d="M203.1,308.6c-2,.8-4.4,1.2-7.1,1.3-5.3.1-9.8-2.6-9.8-2.6h0c0,.2,4.3,2.8,9.5,2.8s.3,0,.4,0c5.4-.1,9.8-1.8,11.4-4.3h-.1c-.8,1.1-2.2,2.1-4.2,2.9h-.1q0-.1,0,0Z"/>
            <path class="cls-33" d="M187.9,289.3v.2c.1,0,11-.4,15.3,0v-.2c-4.3-.4-15.2,0-15.3,0Z"/>
          </g>
          <g>
            <g>
              <path class="cls-32" d="M559.1,368.8c3.6.3,5.5-.4,6.5-3.3,2.6-1.7,3.2-5.6,2.1-7.7.8-2.8-1.3-6.6-3.7-7.1-1.2-2.3-5.6-2.8-7.3-1.7-2.7-1.5-7.2-.6-7.8,2.8-2.3,3.1-1,6.9.9,7.3,0,.9,1.3,2.4,3.5,2.4,0-.1-.8-1.6,0-3.2.9-1.6,2.7-1.9,5-1s2.3,4.8-.6,5.5-6.4.5-9.7-.7v6.3l5.6,1.2v-.9s2.7,1.1,5.4,0h0Z"/>
              <path class="cls-39" d="M574.6,353.6c.3-2.9-1.1-6.3-3.6-8.1-1.5-3.2-7.9-6-10.1-5.8-2.8-1.7-8.8-1.1-10.7.3-4.2.5-7.6,4.7-7.6,7.9-1.8,2-1.5,6.7,0,7.9.6,3.8,4.7,5.4,6.5,5.9s4-.1,4-.2c-2.3,0-3.6-1.5-3.5-2.4-1.8-.5-3.2-4.2-.9-7.3.6-3.4,5.1-4.3,7.8-2.8,1.7-1.1,6.1-.6,7.3,1.7,2.4.5,4.5,4.2,3.7,7.1,1.1,2.1.6,6-2.1,7.7-1,2.9-3,3.6-6.5,3.3-2.7,1.1-5.4,0-5.4,0v.9h.4c1.7,1.6,4.4,1.6,7.5,1,2.7.9,5.2.2,7.3-2.1,2.4-.2,5.8-3.1,5.8-6.9,1.2-2.3,1-5.3,0-8.2h0Z"/>
            </g>
            <g>
              <path class="cls-32" d="M541.9,373.8c.5,5.1-1.8,9.6-2.2,13.6s4.4,6.8,5.4,8c.9,1.2.4,2.8-.2,4.4s-4.6,7.3-4.8,10.1c0,1.2,0,1.4.3,2s0,.9-.3,1.3-2.2,1.6-2.4,2.8c-.2,1.1.3,2.3.2,2.9,0,.6-1.2.8-2.2.9-.9.2-1.5.2-1.8-.2-.5.3-1.3.5-2,.5s-1.1-.1-1.1-.4c-.3,0-1.4.3-1.9.2-.5,0-.6-.1-.7-.8,0-.6,0-1.9.5-2.5.4-.6,3-1.9,3.9-2.7.6-.5,1.3-2.2,2.2-5.1.6-1.8,1.6-4.7,1.3-6.7-.2-1.5-2.6-2.6-5.2-3.9-5-2.4-7.8-9.7-6-15l17-9.2v-.2h0Z"/>
              <path class="cls-4" d="M541.9,373.8c.5,5.1-1.8,9.6-2.2,13.6s4.4,6.8,5.4,8c.9,1.2.4,2.8-.2,4.4s-4.6,7.3-4.8,10.1c0,1.2,0,1.4.3,2s0,.9-.3,1.3-2.2,1.6-2.4,2.8c-.2,1.1.3,2.3.2,2.9,0,.6-1.2.8-2.2.9-.9.2-1.5.2-1.8-.2-.5.3-1.3.5-2,.5s-1.1-.1-1.1-.4c-.3,0-1.4.3-1.9.2-.5,0-.6-.1-.7-.8,0-.6,0-1.9.5-2.5.4-.6,3-1.9,3.9-2.7.6-.5,1.3-2.2,2.2-5.1.6-1.8,1.6-4.7,1.3-6.7-.2-1.5-2.6-2.6-5.2-3.9-5-2.4-7.8-9.7-6-15l17-9.2v-.2h0Z"/>
              <path class="cls-23" d="M531.9,416.4c-.6.9-.7,1.8-1,2.8h-.2c-.2-.5-.2-1,0-1.5s.5-1,1-1.4h.2q0,.1,0,.1Z"/>
              <path class="cls-23" d="M534.9,416.3c-.6.9-.7,1.8-1,2.8h-.2c-.2-.5-.2-1,0-1.5s.5-1,1-1.4h.2q0,.1,0,.1Z"/>
            </g>
            <path class="cls-32" d="M508.6,392.9s-2.6,16.1-2.7,17.4.3,1.4.5,2,.2.9-.2,1.3-1.3,1.7-1.5,2.8.3,2.3.2,2.9c0,.6-1.2.8-2.2.9-.9.2-1.5.2-1.8-.2-.5.3-1.3.5-2,.5s-1.1-.1-1.1-.4c-.3,0-1.4.3-1.9.2-.5,0-.6-.1-.7-.8,0-.6,0-1.9.5-2.5.4-.6,2.3-2,3.1-2.8s1-1,.9-5.1c0-4-4.2-23.2-4.2-23.2h13v7h.1Z"/>
            <path class="cls-4" d="M508.6,392.9s-2.6,16.1-2.7,17.4.3,1.4.5,2,.2.9-.2,1.3-1.3,1.7-1.5,2.8.3,2.3.2,2.9c0,.6-1.2.8-2.2.9-.9.2-1.5.2-1.8-.2-.5.3-1.3.5-2,.5s-1.1-.1-1.1-.4c-.3,0-1.4.3-1.9.2-.5,0-.6-.1-.7-.8,0-.6,0-1.9.5-2.5.4-.6,2.3-2,3.1-2.8s1-1,.9-5.1c0-4-4.2-23.2-4.2-23.2h13v7h.1Z"/>
            <path class="cls-23" d="M499,417c-.6.9-.7,1.8-1,2.8h-.2c-.2-.5-.2-1,0-1.5s.5-1,1-1.4h.2Z"/>
            <path class="cls-23" d="M502.1,416.9c-.6.9-.7,1.8-1,2.8h-.2c-.2-.5-.2-1,0-1.5s.5-1,1-1.4h.2Z"/>
            <g>
              <path class="cls-32" d="M562.4,396.8c-1.1-1.2-5.3-4.6-5.4-8.6s.5-11.6-.7-16.8-7.6-11.1-17.4-11.5c-9.9-.4-15.8.4-19.7-.7s-5.4-4.3-5.4-4.3h-2.6c1.8,2.9,2.4,6.8,2.6,11.8.2,4.4-1.8,6.2-3.9,9.1s-4.9,8.5-5.2,10.4.6,7.6.6,7.6c0,0,2.2,11.8,2.3,15.9,0,4-.2,4.3-.9,5.1-.8.8-2.7,2.2-3.1,2.8s-.5,1.9-.5,2.5.2.7.7.8c.5,0,1.6-.1,1.9-.2,0,.3.4.4,1.1.4s1.5-.2,2-.5c.3.5.8.4,1.8.2.9-.2,2.2-.4,2.2-.9s-.5-1.7-.2-2.9,1.1-2.4,1.5-2.8.4-.8.2-1.3c-.2-.6-.6-.7-.5-2s2.7-17.4,2.7-17.4c1.4-5,3.6-9.8,5.1-11.3s5.4-2.1,7.5-2.1,5.2,1.5,5.2,1.5c0,0,0,2.5.6,6.2,0,0,1.1,4.6,5.3,7.5,4.1,2.9,8.6,4.5,11.5,5.3,2.8.8,4.3,1.6,4.7,3.1.6,2.1.5,4.1.4,6,0,4-1,4.3-1.8,5.1s-2.7,2.2-3.1,2.8-.5,1.9-.5,2.5.2.7.7.8c.5,0,1.6-.1,1.9-.2,0,.3.4.4,1.1.4s1.5-.2,2-.5c.3.5.8.4,1.8.2.9-.2,2.2-.4,2.2-.9s-.5-1.7-.2-2.9c.2-1.1,1.1-2.4,1.5-2.8s.4-.8.2-1.3c-.2-.6-.4-.7-.5-2-.2-2.8.6-7.9.9-9.6.4-1.7.7-3.3-.4-4.4h-.2q0-.1,0-.1Z"/>
              <path class="cls-39" d="M504.6,386.3c.3-1.9,3.1-7.5,5.2-10.4s4.1-4.6,3.9-9.1c-.2-5-.8-8.9-2.6-11.7l-21.9.6s-2,9.1-2.7,12.6-.8,5.5-.7,6.1,1.5,6.3,9.4,12.6c7.9,6.4,9.9,6.8,9.9,6.8,0,0-.9-5.7-.6-7.6h.1q0,.1,0,.1Z"/>
              <path class="cls-39" d="M528.9,380.1c-2.1,0-6,.5-7.5,2.1s-3.7,6.3-5.1,11.3c2.8-.5,8.2-4.2,12.7-5.1s5.7-.5,5.7-.5c-.6-3.8-.6-6.2-.6-6.2,0,0-3.1-1.5-5.2-1.5h0q0-.1,0,0Z"/>
            </g>
            <path class="cls-16" d="M513.6,352.3c5.7-3,7-9.8,4.3-15.7-4.6,2.2-8.6,4.8-8.7,11.5l4.3,4.2h.1Z"/>
            <path class="cls-62" d="M515.9,344.6c-.5-1.2-.9-2.7-1.3-4.1.8-1.2,1.1-2.1,1.1-2.4s0-.2-.2-.3c-3.5,2-6.1,4.8-6.2,10.2l4.3,4.2c3.2-1.7,5-4.6,5.5-7.8-1.1,0-2.2,0-3.2.2h0Z"/>
            <path class="cls-16" d="M512,355.5c6.4,1.1,11.6-3.4,13.2-9.6-5-1.2-9.7-1.5-14,3.7l.8,6h0Z"/>
            <path class="cls-62" d="M515.8,355c-.5-.6-.3-.8-.4-1.7,0-.3,0-.5-.2-.7,1-1.5,1.4-2.8,2-5.4-.4-.3-.7-.8-1-1.4-1.7.6-3.4,1.8-5,3.7l.8,6c1.4.3,2.7.2,4,0,0-.1,0-.3-.2-.5h0Z"/>
            <path class="cls-16" d="M487.7,353.4c-.9.7-1.3,2.7-1.1,3.2.1.5.9,1.8.2,2.7s-2.1,1.2-1.9,2.1.9,5.8,6.6,12.1c5.8,6.4,8.4,8.4,8.7,8.1s5.5-8.8,7.6-13,5.2-11.3,5.9-12.2,1.2-1.1.7-1.7-.3-.8-.4-1.7-1-1.5-1-1.5h-24.1s-1.3.3-1.2,2h0q0-.1,0-.1Z"/>
            <path class="cls-32" d="M484.6,353.7c-1.8-2.4-2.3-3.5-3-6.8,1.1-.9,1.8-3.6,2.5-6-.8-1.2-1.1-2.1-1.1-2.4s.4-.4.6-.9-.3-2.2,1-8.1,2.5-6.7,2.9-6.7,1.4.9,2.6,2.7,4.1,4.8,4.9,5c0,0,2.1-.3,3.7-.3s3.7.3,3.7.3c.8-.2,3.6-3.3,4.9-5,1.2-1.7,2.2-2.7,2.6-2.7s1.6.8,2.9,6.7c1.3,5.9.8,7.6,1,8.1s.6.7.6.9-.3,1.1-1.1,2.4c.6,2.4,1.4,5.1,2.5,6-.7,3.4-1.2,4.5-3,6.8h-28.2Z"/>
            <path class="cls-39" d="M498.7,345.9c-1,0-1.6.2-2.4,1.1s-1.9,1.4-4.3,1.5c-2.3,0-4.9-1.3-5.8-1.7-1-.5-2.4,1.4-2.5,3.1-.2,1.7.2,3.2,1.7,4.7s4.3,2.7,5.3,3.5,1.7,1.6,3,2.7,3,1.8,5,1.8,3.7-.7,5-1.8,1.9-1.9,3-2.7,3.8-2,5.3-3.5c1.5-1.5,1.9-3,1.7-4.7s-1.6-3.5-2.5-3.1c-1,.5-3.5,1.8-5.8,1.7-2.3,0-3.5-.6-4.3-1.5s-1.4-1.1-2.4-1.1h0Z"/>
            <path class="cls-18" d="M497.8,352.6s.5.4.6.7c.1.4,0,.7-.4.9-.5.1-2.1.7-2.6,1-.6.3-1.5.9-2.5.5-.9-.4-2.2-1.8-2.3-2.1,0-.4.1-.5,0-.8s-.9-.6-1-.5c-.1.2,0,.7.4,1.1s.7.7,1,1.1.8,1,1.4,1.5,1.2.3,1.6.7,1.8,3.7,4.6,3.7,4.2-3.2,4.6-3.7c.4-.4,1-.2,1.6-.7s1.1-1.2,1.4-1.5.7-.6,1-1.1.5-.9.4-1.1-.9.2-1,.5,0,.4,0,.8-1.3,1.8-2.3,2.1c-.9.4-1.9-.2-2.5-.5s-2.2-.9-2.6-1c-.5-.1-.5-.5-.4-.9s.6-.7.6-.7h-1.7.1,0Z"/>
            <g>
              <path class="cls-15" d="M502.8,338.3c-1.6.7-1.7,2.6-1.1,3.4s1.9.4,3,0,3-1.6,2.8-2.4-2.2-2-4.6-1h-.1,0Z"/>
              <path class="cls-37" d="M505.8,343.7c-1.4,0-2,1.1-2,1.5s.2.6.7.5,1.1-.2,1.9-.1,2.1.2,2.1-.2-1.1-1.7-2.8-1.7h.1,0Z"/>
              <path class="cls-15" d="M495.1,338.3c1.6.7,1.7,2.6,1.1,3.4s-1.9.4-3,0-3-1.6-2.8-2.4,2.2-2,4.6-1h.1,0Z"/>
              <path class="cls-37" d="M492,343.7c1.4,0,2,1.1,2,1.5s-.2.6-.7.5-1.1-.2-1.9-.1c-.8,0-2.1.2-2.1-.2s1.1-1.7,2.8-1.7h-.1,0Z"/>
            </g>
            <path class="cls-18" d="M498.7,349c-.5,0-1.6,0-2.1.2s-1.5,1.1-1.4,1.3c0,.3.8,1.3,1.3,1.5.4.3.4-.4.7-.4s.1.7.3.8c.1,0,.4.5,1.3.5s1.2-.4,1.3-.5c.1,0,0-.8.3-.8s.2.7.7.4c.4-.3,1.2-1.3,1.3-1.5s-.9-1.2-1.4-1.3c-.5-.2-1.6-.2-2.1-.2h-.2,0Z"/>
            <path class="cls-34" d="M498.7,359.6c-1,0-1.6-.7-1.9-1.2-.4-.5-.3-.5-1.1-1s-.7-1.2-.2-1.5c.4-.4,2.2-1.2,3.3-1.2s2.9.8,3.3,1.2.6,1-.2,1.5-.8.5-1.1,1c-.4.5-1,1.2-1.9,1.2h-.2,0Z"/>
            <g>
              <path class="cls-15" d="M500.9,358.1c.3.3,1.2.1,1.2-.2-.1-.6-.5-1.2-.9-1.3-.4.8-.3,1.1-.4,1.5h.1,0Z"/>
              <path class="cls-15" d="M496.4,358.1c-.3.3-1.2.1-1.2-.2.1-.6.5-1.2.9-1.3.4.8.3,1.1.4,1.5h-.1,0Z"/>
            </g>
            <g>
              <path class="cls-39" d="M508.5,333.5c-.3-.3-.7-1-.4-2,.2-.9,1.8-7,2-6.9.2.2,1.2,1.8,2.2,6.8.9,5.1.8,5.4.7,5.8s-.9,1.2-1.1.9c-.2-.2-1.1-2.1-1.5-2.7,0-1.2,0-1.6-.2-2.4-.1-.8,0-2-.3-1.6-.2.3-.4,2-.5,2.2,0,.2-.3.3-.9-.2h0Z"/>
              <path class="cls-39" d="M488.8,333.5c.3-.3.7-1,.4-2-.2-.9-1.8-7-2-6.9-.2.2-1.2,1.8-2.2,6.8-.9,5.1-.8,5.4-.7,5.8.2.4.9,1.2,1.1.9s1.1-2.1,1.5-2.7c0-1.2,0-1.6.2-2.4.1-.8,0-2,.3-1.6.2.3.4,2,.5,2.2,0,.2.3.3.9-.2h0q0,.1,0,.1Z"/>
            </g>
            <path class="cls-23" d="M502.6,330.6c1.9.1,3.8.9,5.2,2.2h0c-1.6-1-3.3-1.7-5.1-2.1h-.1Z"/>
            <path class="cls-23" d="M505.9,331c.5,0,1,.2,1.3.6h0c-.5,0-.9-.3-1.3-.6h0Z"/>
            <path class="cls-23" d="M494.8,330.6c-1.9.1-3.8.9-5.2,2.2h0c1.6-1,3.3-1.7,5.1-2.1h.1Z"/>
            <path class="cls-23" d="M491.5,331c-.5,0-1,.2-1.3.6h0c.5,0,.9-.3,1.3-.6h0Z"/>
            <path class="cls-62" d="M487.8,359c2,3.7,4.5,7.1,7.4,10.1,0,0,0,.2-.1.1-2.6-1.9-4.6-4.5-6.2-7.3-.1-.2-1.7-3.4-1.2-3h.1q0,.1,0,0Z"/>
            <path class="cls-62" d="M499.5,365.4c4-2.3,7.9-4.8,11.3-7.9,0,0,.2,0,.1.1-2.9,3.6-7.1,6.1-11.3,8,0,0-.1,0,0-.1h-.1Z"/>
            <path class="cls-62" d="M489.6,360.2c1.7,1.8,3.5,3.5,5.7,4.6v.2c-2.5-.5-4.5-2.5-5.8-4.7,0,0,0-.2.1,0h0q0-.1,0-.1Z"/>
            <path class="cls-62" d="M504,366.3c1.6-1.9,3.1-3.8,4-6.1h.2c-.3,2.5-2.1,4.7-4.1,6.2,0,0-.2,0,0-.1h-.1Z"/>
            <path class="cls-23" d="M506.7,417.6c-.6.9-.7,1.8-1,2.8h-.2c-.2-.5-.2-1,0-1.5s.5-1,1-1.4h.2Z"/>
            <path class="cls-23" d="M509.7,417.5c-.6.9-.7,1.8-1,2.8h-.2c-.2-.5-.2-1,0-1.5s.5-1,1-1.4h.2Z"/>
            <path class="cls-23" d="M555,417.6c-.6.9-.7,1.8-1,2.8h-.2c-.2-.5-.2-1,0-1.5s.5-1,1-1.4h.2q0,.1,0,.1Z"/>
            <path class="cls-23" d="M558,417.5c-.6.9-.7,1.8-1,2.8h-.2c-.2-.5-.2-1,0-1.5s.5-1,1-1.4h.2q0,.1,0,.1Z"/>
            <path class="cls-23" d="M555.4,369.4c-1.7-2.2-3.6-4.1-5.7-5.9,0,0,0-.2,0-.1,2.5,1.3,4.5,3.5,5.7,6,0,0,0,.1,0,0h0Z"/>
            <path class="cls-23" d="M556.4,368.8c-1-1.1-1.9-2.1-2.8-3.3,0,0,0-.2,0-.1,1.3.7,2.3,1.9,2.8,3.3,0,0,0,.1,0,0h0Z"/>
            <path class="cls-23" d="M536.6,385.9c.5,2.2,1.4,4.2,2.8,5.9,0,0,0,.2,0,.1-2-1.3-3-3.7-2.9-6h.2Z"/>
            <path class="cls-23" d="M537.6,383.8c.3,1.2.6,2.5.8,3.7,0,0,0,.1,0,0-.4-.5-.7-1.1-.8-1.8,0-.6-.2-1.3,0-2h.2,0q0,.1,0,0Z"/>
          </g>
        </g>
      </g>
      <g id="e7ZfSTxtdFp623">
        <path id="e7ZfSTxtdFp624" class="cls-7" d="M594.7,405.1h2.7v11.5h-2.7v-11.5ZM596.1,403.2c-.5,0-.9-.2-1.2-.5-.3-.3-.5-.7-.5-1.2s.2-.8.5-1.1c.3-.3.7-.5,1.2-.5s.9.2,1.2.5c.3.3.5.7.5,1.1s-.2.9-.5,1.2c-.3.3-.7.5-1.2.5ZM621.1,410v6.6h-2.7v-6.3c0-1-.2-1.8-.7-2.3-.5-.5-1.1-.8-2-.8s-1.8.3-2.3.9c-.6.6-.9,1.4-.9,2.6v5.8h-2.7v-16h2.7v5.8c.4-.5,1-.8,1.6-1.1.7-.3,1.4-.4,2.2-.4,1.4,0,2.6.4,3.4,1.3.9.8,1.3,2.1,1.3,3.8h0,0ZM605.1,416.8c-1.2,0-2.2-.3-2.9-1-.7-.7-1-1.6-1-2.9v-5.5h-1.9v-2.2h1.9v-2.6h2.7v2.6h3v2.2h-3v5.5c0,.6.1,1,.4,1.3.3.3.7.4,1.2.4s1.1-.2,1.5-.5l.7,1.9c-.3.3-.7.5-1.1.6-.4.1-.9.2-1.4.2h0s0,0,0,0ZM586.2,416.6l-2.9-7.9-3,7.9h-2.6l-4.2-11.5h2.5l3,8.5,3.1-8.5h2.2l3.1,8.5,3.1-8.5h2.4l-4.2,11.5h-2.6,0ZM566.7,410.9c0,.2,0,.5,0,.8h-8.9c.2.8.6,1.5,1.2,2,.7.5,1.5.7,2.5.7s2.3-.4,3.1-1.3l1.4,1.7c-.5.6-1.2,1.1-1.9,1.4s-1.7.5-2.6.5-2.3-.3-3.3-.8c-1-.5-1.7-1.2-2.2-2.1-.5-.9-.8-1.9-.8-3.1s.2-2.1.7-3c.5-.9,1.2-1.6,2.1-2.1s1.9-.8,3-.8,2.1.3,3,.8c.9.5,1.6,1.2,2,2.1.5.9.7,1.9.7,3.1,0,0,0,0,0,0ZM561,407.2c-.9,0-1.6.3-2.2.8-.6.5-.9,1.2-1.1,2h6.4c-.1-.8-.5-1.5-1-2-.6-.5-1.3-.8-2.2-.8ZM550,416.6v-1.5c-.4.5-1,1-1.6,1.2-.6.3-1.3.4-2.1.4s-2.1-.2-3-.7c-.9-.5-1.5-1.2-2-2.1-.5-.9-.7-1.9-.7-3.1s.2-2.2.7-3.1c.5-.9,1.2-1.6,2-2.1.9-.5,1.9-.7,3-.7s1.4.1,2.1.4,1.2.6,1.6,1.2v-5.9h2.7v16h-2.6ZM549.5,412.8c.3-.5.4-1.2.4-1.9s-.1-1.4-.4-1.9c-.3-.5-.7-1-1.2-1.3-.5-.3-1.1-.5-1.7-.5s-1.2.2-1.7.5c-.5.3-.9.7-1.2,1.3s-.4,1.2-.4,1.9.1,1.4.4,1.9.7,1,1.2,1.3c.5.3,1.1.4,1.7.4s1.2-.1,1.7-.4c.5-.3.9-.7,1.2-1.3ZM532.8,405c1.7,0,2.9.4,3.8,1.2.9.8,1.3,2,1.3,3.7v6.7h-2.5v-1.4c-.3.5-.8.9-1.4,1.2-.6.3-1.3.4-2.2.4s-1.6-.1-2.2-.4c-.6-.3-1.1-.7-1.5-1.2-.3-.5-.5-1.1-.5-1.8,0-1,.4-1.9,1.1-2.5.8-.6,2-.9,3.6-.9h2.9v-.2c0-.8-.2-1.4-.7-1.9-.5-.4-1.2-.6-2.1-.6s-1.3.1-1.9.3c-.6.2-1.1.5-1.6.8l-1-2c.6-.5,1.3-.8,2.1-1.1s1.7-.4,2.7-.4c0,0,0,0,0,0ZM532.4,414.8c.7,0,1.3-.2,1.8-.5.5-.3.9-.8,1.1-1.3v-1.3h-2.7c-1.5,0-2.3.5-2.3,1.5s.2.9.6,1.2.9.4,1.6.4c0,0,0,0,0,0ZM517.1,414.9h-1.2l-4.9-8.1v9.9h-2.6v-15.1h2.3l5.9,10,5.8-10h2.3v15.1s-2.6,0-2.6,0v-10s-4.9,8.3-4.9,8.3ZM607.6,441.9v21.6h-4.8v-2.8c-.8,1-1.9,1.8-3.1,2.3-1.3.5-2.7.8-4.1.8-2,0-3.9-.4-5.7-1.4-1.6-.9-3-2.2-3.9-3.9-1.9-3.7-1.9-8,0-11.7.9-1.6,2.2-3,3.9-3.9,1.7-.9,3.7-1.4,5.7-1.4,1.3,0,2.6.2,3.9.7,1.2.5,2.2,1.2,3.1,2.1v-1.1c0-.4.2-.8.5-1.1s.7-.5,1.1-.5c0,0,3.5,0,3.5,0ZM600.8,457.6c2.4-2.8,2.4-7,0-9.8-2.6-2.5-6.7-2.5-9.2,0-2.4,2.8-2.4,7,0,9.8,1.2,1.2,2.9,1.9,4.6,1.9,1.7,0,3.4-.6,4.6-1.9h0ZM626.5,462.4c-.6.5-1.4.9-2.2,1.1-.9.2-1.8.4-2.7.4-2,.1-4-.5-5.5-1.9-1.4-1.5-2.1-3.4-1.9-5.4v-19.4h3.5c.4,0,.8.2,1.1.5s.5.7.5,1.1v3.4h5.8v4.1h-5.8v10.3c0,.9.2,1.7.8,2.4.6.6,1.4.9,2.2.9.3,0,.6,0,1,0,1.2-.2,2.3.4,2.8,1.5l.5,1.3h0ZM633.7,462.4c-1.7-.9-3.1-2.3-4.1-4-2-3.6-2-7.9,0-11.5,1-1.7,2.4-3,4.1-3.9,3.7-1.9,8.1-1.9,11.9,0,1.7.9,3.1,2.3,4.1,3.9,2,3.6,2,7.9,0,11.5-1,1.7-2.4,3-4.1,4-3.7,1.9-8.1,1.9-11.9,0ZM644.3,457.6c2.4-2.8,2.4-7,0-9.8-2.6-2.5-6.7-2.5-9.2,0-2.4,2.8-2.4,7,0,9.8,1.2,1.2,2.9,1.9,4.6,1.9,1.7,0,3.4-.6,4.6-1.8h0ZM668.6,441.7v4.8c-.4,0-.8-.1-1.2-.1-1.7,0-3.4.5-4.6,1.7-1.2,1.4-1.8,3.2-1.7,5v10.5h-5.1v-21.6h3.3c.4,0,.8.2,1.1.5s.5.7.5,1.1v1.6c1.4-2.3,4-3.4,7.7-3.4h0ZM515.7,463.2c-1.4-.3-2.8-.9-4-1.7l.9-1.8c.5-1.1,1.8-1.5,2.9-1.1.5.2,1.1.4,1.6.6,1.3.4,2.7.6,4,.6,3,0,4.5-.8,4.5-2.4,0-.7-.5-1.4-1.2-1.6-1.2-.4-2.4-.7-3.7-.9-1.5-.2-2.9-.5-4.4-1-1.1-.4-2.1-1-2.9-1.9-.9-1-1.3-2.3-1.2-3.7,0-2,.9-3.8,2.6-4.9,2.1-1.3,4.5-2,7-1.9,1.5,0,3,.2,4.5.5,1.3.3,2.5.7,3.7,1.4l-1,1.9c-.5,1-1.7,1.5-2.8,1.1-1.4-.5-2.9-.8-4.4-.8-1.2,0-2.3.2-3.4.7-.7.3-1.1,1-1.2,1.8,0,.8.5,1.5,1.2,1.7,1.2.5,2.5.8,3.9,1,1.4.2,2.9.5,4.3,1,1.1.3,2.1.9,2.9,1.8.9,1,1.3,2.3,1.2,3.6,0,2-1,3.8-2.6,4.9-2.1,1.3-4.7,2-7.2,1.8-1.8,0-3.5-.2-5.2-.7h0ZM579.8,441.9v18.4c0,7.6-3.9,11.4-11.7,11.4-2,0-4-.3-5.9-.8-1.7-.4-3.3-1.2-4.6-2.3l1.5-2.4c.4-.7,1.4-.9,2.1-.5.7.4,1.5.8,2.3,1,1.4.5,2.9.7,4.4.7,2.4,0,4.1-.5,5.2-1.6,1.2-1.4,1.8-3.1,1.7-4.9v-1.1c-.9.9-2,1.7-3.2,2.1-1.3.5-2.7.7-4.1.7-1.9,0-3.9-.4-5.6-1.3-1.6-.8-3-2.1-3.9-3.7-1-1.7-1.5-3.6-1.4-5.5,0-1.9.5-3.8,1.4-5.5.9-1.6,2.3-2.8,3.9-3.7,1.7-.9,3.6-1.3,5.6-1.3,1.5,0,2.9.2,4.3.8,1.3.5,2.4,1.3,3.2,2.3v-1.3c0-.4.2-.8.5-1.1s.7-.5,1.1-.5h3.3s0,0,0,0ZM573,456.6c1.2-1.2,1.9-2.8,1.9-4.5,0-1.7-.6-3.3-1.9-4.4-2.8-2.3-6.7-2.3-9.5,0-1.2,1.1-1.9,2.8-1.8,4.4,0,1.7.6,3.3,1.8,4.5,2.7,2.3,6.7,2.3,9.5,0h0ZM555.8,441.9l-8.4,19.6c-.5,1.2-1.7,2-3.1,2h-2.7l8.2-19.1.4-1c.4-.9,1.3-1.5,2.3-1.5h3.2s0,0,0,0ZM540.4,460.8l-8.4-18.9h3.6c1,0,2,.6,2.3,1.6l5,11.5s-2.5,5.9-2.5,5.9Z"/>
        <g class="cls-1">
          <g id="e7ZfSTxtdFp625" class="cls-43">
            <path id="e7ZfSTxtdFp626" class="cls-15" d="M481.1,467.4c-3.8.9-8.6.8-16-8.4-1-1.3-1.9-2.7-2.5-4.3,1.3.4,2.7.6,4.1.6,7.3,0,13.2-5.9,13.2-13.2s-.6-4.5-1.7-6.4c9.7-1.3,20.7-.5,24,2.7,5.3,5-6,25.3-21.1,29Z"/>
          </g>
        </g>
        <path id="e7ZfSTxtdFp629" class="cls-10" d="M476.1,445.4l-1.6-.9c-.4-.3-.7-.7-.7-1.2v-.9c0-.5.3-1,.7-1.2l1.6-.9c.3-.2.6-.5.7-.9s0-.8-.1-1.1h0l-.7-1.3c-.4-.7-1.3-.9-1.9-.5h0l-1.6.9c-.4.3-1,.3-1.4,0l-.7-.4c-.4-.3-.7-.7-.7-1.2v-1.9c0-.4-.1-.7-.4-1s-.6-.4-1-.4h-1.5c-.4,0-.7.1-1,.4s-.4.6-.4,1,0,0,0,0v1.9c0,.5-.3,1-.7,1.2l-.7.4c-.4.3-1,.3-1.4,0l-1.6-1c-.3-.2-.7-.2-1.1-.1s-.7.3-.9.7h0l-.7,1.3c-.2.3-.2.7-.1,1.1s.3.7.7.9h0l1.6,1c.4.3.7.7.7,1.2v.9c0,.5-.3,1-.7,1.2l-1.5.9c-.7.4-.9,1.3-.5,1.9h0l.7,1.3c.4.7,1.3.9,1.9.5h0l1.6-.9c.4-.3,1-.3,1.4,0l.7.4c.4.3.7.7.7,1.2v1.6c0,.4.1.7.4,1s.6.4,1,.4h1.5c.4,0,.7-.1,1-.4s.4-.6.4-1h0v-1.6c0-.5.3-1,.7-1.2l.7-.4c.4-.3,1-.3,1.4,0l1.6.9c.7.4,1.5.2,1.9-.5h0l.7-1.3c.4-.7.2-1.5-.5-1.9h0ZM467.3,445.8c-1.7,0-3-1.3-3-3s1.3-3,3-3,3,1.3,3,3h0c0,1.7-1.3,3-3,3h0Z"/>
      </g>
    </g>
  </g>
</svg>